<?xml version="1.0" encoding="utf-8"?>
<!-- Generator: Adobe Illustrator 16.0.0, SVG Export Plug-In . SVG Version: 6.00 Build 0)  -->
<!DOCTYPE svg PUBLIC "-//W3C//DTD SVG 1.1//EN" "http://www.w3.org/Graphics/SVG/1.1/DTD/svg11.dtd">
<svg version="1.1" id="Layer_1" xmlns="http://www.w3.org/2000/svg" xmlns:xlink="http://www.w3.org/1999/xlink" x="0px" y="0px"
	 width="100px" height="100px" viewBox="0 0 100 100" enable-background="new 0 0 100 100" xml:space="preserve">
<ellipse fill="#FAD3E2" cx="50.684" cy="50.273" rx="49.168" ry="49.727"/>
<g>
	<defs>
		<ellipse id="SVGID_1_" cx="50.684" cy="50.273" rx="49.168" ry="49.727"/>
	</defs>
	<clipPath id="SVGID_2_">
		<use xlink:href="#SVGID_1_"  overflow="visible"/>
	</clipPath>
	<g clip-path="url(#SVGID_2_)">
		<g>
			<path fill="#FFFFFF" d="M42.973,37.749c-0.388-1.528-2.503-2.084-3.828-1.25s-1.855,2.576-1.717,4.148
				c0.061,0.705,0.24,1.412,0.62,2.006c0.868,1.357,2.611,1.874,4.209,1.858c0.429,6.372,0.623,12.761,0.583,19.147
				c2.64,2.388,6.64,3.109,9.933,1.792c0.933-0.371,1.835-0.919,2.407-1.753c1.376-2.003-0.176-6.254,2.124-7.353
				c0.977-0.467,2.558-0.09,3.635-0.363c1.481-0.375,2.882-1.159,3.782-2.437c3.375-4.786,2.743-11.64,2.618-17.129
				c-0.061-2.63,0.06-5.267,0.356-7.881c0.257-2.262,0.604-4.736-0.602-6.659c-1.526-2.436-4.8-2.881-7.648-3.038
				c-4.704-0.261-9.865-0.26-13.538,2.726c-2.446,1.988-3.874,5.194-3.724,8.365c0.036,0.764,0.119,1.645-0.421,2.18L42.973,37.749z
				"/>
			<path fill="#E2DFF0" d="M50.12,25.326c3.894,2.685,8.459,5.39,13.042,4.273c-0.431,4.508-0.86,9.016-1.29,13.524
				c-4.148-0.202-8.481-0.371-12.257,1.379c-0.372,0.172-0.76,0.386-0.943,0.756c-0.158,0.32-0.132,0.698-0.102,1.055
				c0.253,2.923,0.594,5.84,1.022,8.742c-1.41,0.049-2.824-0.043-4.215-0.274c0.859,1.563,2.322,2.777,4.007,3.321
				c0.37,0.12,0.787,0.237,0.984,0.575c0.152,0.263,0.126,0.588,0.096,0.892c-0.227,2.273-0.453,4.549-0.679,6.823
				c2.132,0.899,4.643-0.727,5.574-2.866c0.931-2.139,0.712-4.586,0.475-6.911c2.302-0.149,4.68-0.431,6.66-1.627
				c2.433-1.47,2.632-2.704,3.306-5.488c0.673-2.785,1.92-7.153,1.852-10.019c-0.142-5.896-0.282-11.793-0.424-17.69
				c-0.418,0.055-0.836,0.108-1.254,0.162L50.12,25.326z"/>
			<path fill="#B9B5DB" d="M50.762,56.051c-0.568-0.144-0.514-3.62-0.264-4.131c0.961-1.968,3.573-0.818,5.323-1.077
				c1.013-0.149,2.036-0.461,2.812-1.134c0.686-0.595,1.127-1.426,1.476-2.269c0.541-1.302,0.901-2.68,1.067-4.081
				c0.923,0.524,1.999,0.772,3.056,0.7c0.504-0.034,1.042-0.132,1.49,0.103c0.727,0.38,0.813,1.378,0.792,2.204
				c-0.036,1.542-0.116,3.107-0.604,4.569c-0.932,2.795-3.425,4.996-6.289,5.552c-2.221,0.43-4.514-0.069-6.77,0.088
				C52.85,56.574,50.782,56.056,50.762,56.051z"/>
			<path fill="#6F73B6" d="M15.933,91.707c1.686-6.64,3.623-13.706,8.74-18.204c5.308-4.665,13.176-5.729,17.999-10.904
				c1.475,2.604,4.506,4.218,7.464,3.972c3.082-0.257,5.444-2.352,6.728-5.077c1.956,2.707,5.334,3.188,8.374,3.89
				c3.288,0.759,6.181,2.825,8.413,5.383c4.978,5.699,5.515,13.219,10.164,19.104c1.224,1.548,2.619,2.985,3.551,4.73
				c0.171,0.323,0.329,0.691,0.23,1.043c-0.08,0.283-0.313,0.495-0.541,0.68c-2.773,2.27-6.259,3.413-9.665,4.486
				c-11.798,3.723-24.395,7.191-36.353,4.035c-5.283-1.394-10.153-4.023-14.966-6.63L15.933,91.707z"/>
			<path fill="#6165AE" d="M22.384,99.532c1.338-3.571,2.675-7.144,4.014-10.714c0.628-1.676,1.276-3.387,2.418-4.755
				c0.213-0.257,0.482-0.518,0.813-0.518c0.47,0,0.763,0.501,0.947,0.938c1.829,4.321,2.752,8.992,3.122,13.677
				c0.14,1.777,0.121,3.783-1.121,5.048c-1.043,1.062-2.668,1.275-4.144,1.157c-1.475-0.118-2.937-0.507-4.414-0.411L22.384,99.532z
				"/>
			<path fill="#6165AE" d="M50.833,66.399c0.26,2.391,3.291,3.288,4.608,5.292c0.643,0.978,0.84,2.18,0.991,3.345
				c1.12,8.662,0.444,17.454,0.867,26.181c0.081,1.683,0.224,3.432,1.063,4.887c3.155,0.875,6.534,0.327,9.659-0.651
				c3.125-0.978,6.113-2.379,9.267-3.262c0.612-0.171,1.331-0.417,1.502-1.035c0.112-0.408-0.063-0.833-0.22-1.222
				c-1.608-3.983-1.707-8.393-2.152-12.67c-0.445-4.278-1.367-8.753-4.213-11.948c-2.286-2.567-5.526-3.991-8.569-5.56
				c-3.043-1.567-6.139-3.515-7.65-6.611c-0.688,1.731-2.369,3.017-4.205,3.212L50.833,66.399z"/>
			<path fill="#372E7C" d="M37.478,29.634c0.195,1.226,0.523,2.429,0.965,3.587c0.218,0.57,0.463,1.13,0.737,1.676
				c0.191,0.38,0.741,1.003,0.64,1.455c-1.38-0.072-2.375,2.152-2.53,3.248c-0.237,1.674,0.389,3.537,1.761,4.556
				c0.519,0.386,1.12,0.594,1.725,0.637c1.041,2.304,1.635,4.741,1.594,7.283c-0.03,1.094-0.045,2.188-0.041,3.287
				c0.007,1.298,0.044,2.592,0.106,3.887c0.036,0.728,0.259,1.497,0.164,2.243c-0.114,0.897-0.827,1.282-1.488,1.792
				c-0.083,0.063-0.179,0.124-0.249,0.2c-0.068,0.075-0.127,0.161-0.189,0.241c-0.085,0.107-0.11,0.242-0.021,0.358
				c0.083,0.107,0.23,0.139,0.349,0.07c0.082-0.047,0.164-0.093,0.246-0.141c0.092-0.053,0.166-0.133,0.243-0.206
				c0.138-0.135,0.275-0.267,0.41-0.402c0.191-0.189,0.382-0.381,0.573-0.569c1.399,2.773,4.356,4.611,7.46,4.437
				c3.134-0.178,5.899-2.256,7.105-5.156c0.194-0.466-0.614-0.814-0.813-0.347c-0.057,0.133-0.132,0.255-0.195,0.384
				c0.139-0.948-0.002-1.953-0.045-2.904c-0.033-0.756-0.099-1.486-0.185-2.221c2.591,0.031,5.228-0.288,7.398-1.851
				c2.213-1.594,3.299-4.144,3.745-6.782c0.307-1.809,0.415-3.708,0.482-5.542c0.051-1.389,0.077-2.78,0.146-4.169
				c0.054-1.087,0.1-2.175,0.129-3.262c0.012-0.434-0.099-1.058,0.001-1.468c0.095-0.391,0.454-0.662,0.639-1.012
				c0.23-0.438,0.3-1.002,0.4-1.482c0.134-0.636,0.234-1.278,0.314-1.923c0.077-0.63,0.132-1.261,0.125-1.897
				c-0.007-0.647,0.063-1.439-0.362-1.944c0.487-0.3,0.891-0.769,1.111-1.263c0.481-1.079,0.483-2.406,0.449-3.57
				c-0.015-0.505-0.111-1.062-0.285-1.602c-0.555-2.447-2.264-4.648-4.391-6.017c-0.11-0.071-0.224-0.132-0.335-0.197
				c-0.024-0.016-0.05-0.029-0.074-0.043c-0.226-0.133-0.454-0.257-0.687-0.372c-0.02-0.009-0.036-0.022-0.056-0.03
				c-0.01-0.005-0.021-0.008-0.029-0.012c-3.923-1.898-8.691-1.43-12.764-0.258c-3.71,1.068-7.477,3.36-8.813,7.009
				c-0.049,0.084-0.099,0.167-0.142,0.255c-0.167,0.004-0.334,0.018-0.501,0.039c-2.375,0.159-4.632,1.857-5.454,4.179
				c-0.596,1.688-0.198,3.533,0.387,5.162C37.313,29.196,37.397,29.415,37.478,29.634z M66.842,36.111
				c-0.115,2.708-0.231,5.421-0.393,8.128c-1.339-0.289-2.568-0.966-3.881-1.361c-1.578-0.476-3.247-0.611-4.888-0.507
				c-1.625,0.103-3.212,0.446-4.775,0.895c-0.823,0.237-1.638,0.502-2.448,0.782c-0.596,0.205-1.331,0.355-1.803,0.798
				c-1.012-1.294-2.017-2.596-2.987-3.923c-0.522-0.714-1.035-1.435-1.537-2.163c-0.168-0.244-0.334-0.491-0.5-0.737
				c0.019-0.045,0.03-0.095,0.034-0.149c0.168-3.045-0.002-6.099-0.399-9.12c1.029-0.123,1.993-0.545,2.789-1.224
				c0.428-0.365,0.8-0.806,1.093-1.289c0.145-0.239,0.25-0.49,0.327-0.751c1.319,0.652,2.887,1.036,4.099,1.313
				c2.327,0.534,4.723,0.72,7.103,0.778c2.331,0.056,4.973,0.316,7.235-0.347c0.309-0.09,0.599-0.214,0.88-0.351
				C67.023,29.95,66.972,33.045,66.842,36.111z M67.333,26.586c0,0.002,0,0.004,0,0.006C67.333,26.59,67.332,26.588,67.333,26.586
				C67.332,26.586,67.332,26.586,67.333,26.586z M38.086,39.709c0.172-1.152,0.849-2.263,2.008-2.596
				c0.84-0.243,1.756-0.066,2.382,0.513c0.079,0.145,0.184,0.287,0.289,0.451c0.246,0.383,0.494,0.764,0.746,1.144
				c0.517,0.782,1.046,1.555,1.587,2.32c1.057,1.497,2.159,2.952,3.332,4.359c0.054,0.064,0.112,0.097,0.172,0.119
				c-0.285,1.746-0.047,4.693,0.014,5.201c0.113,0.93,0.281,1.859,0.526,2.767c-1.196-1.119-2.405-2.216-3.485-3.479
				c-0.849-0.993-1.621-2.064-2.38-3.11c-0.093-0.128-0.096-0.299-0.095-0.458c0.006-1.096,0.063-2.175,0.051-3.271
				c-0.003-0.327-0.402-0.494-0.633-0.266c-0.396,0.391-0.872,0.586-1.362,0.629c-0.093-0.027-0.178-0.025-0.251,0.005
				c-0.666-0.014-1.334-0.304-1.84-0.82C38.263,42.314,37.9,40.947,38.086,39.709z M55.085,62.56
				c0.065,0.259,0.321,0.362,0.544,0.316c-1.268,1.982-3.426,3.361-5.797,3.451c-2.648,0.099-5.236-1.368-6.633-3.621
				c0.017-0.015,0.035-0.029,0.047-0.047c0.312-0.483,0.162-1.058,0.139-1.615c-0.024-0.597-0.045-1.195-0.064-1.794
				c-0.025-0.851-0.05-1.701-0.075-2.552c0.038-1.486,0.031-2.974,0.031-4.443c0-1.21-0.014-2.421-0.019-3.632
				c1.499,2.293,3.319,4.464,5.341,6.16c-0.26-0.125-0.519-0.254-0.766-0.403c-0.51-0.31-0.972,0.493-0.465,0.806
				c2.3,1.411,5.167,1.747,7.807,1.834c0.026,0.001,0.055,0,0.082,0.002c-0.087,0.736-0.152,1.471-0.187,2.229
				C55.021,60.336,54.818,61.499,55.085,62.56z M63.917,53.288c-0.557,0.638-0.997,1.124-1.801,1.458
				c-3.095,1.289-6.567,1.188-9.901,0.898c-0.538-0.047-1.306-0.095-1.707-0.522c-0.355-0.379-0.435-1.072-0.566-1.569
				c-0.237-0.903-0.459-1.811-0.609-2.734c-0.155-0.958-0.241-1.928-0.264-2.897c-0.005-0.234-0.052-1.936,0.141-2.597
				c0.5-0.063,0.997-0.294,1.477-0.438c0.764-0.229,1.534-0.447,2.308-0.641c1.643-0.409,3.327-0.724,5.019-0.798
				c1.665-0.072,3.307,0.127,4.881,0.689c1.177,0.419,2.284,0.939,3.495,1.189c-0.004,0.052-0.005,0.104-0.009,0.156
				C66.199,48.197,65.763,51.17,63.917,53.288z"/>
			<path fill="#372E7C" d="M54.313,37.827l-0.144,0.082c0,0.001,0,0,0,0.001l-0.082,0.025c-0.112,0.039-0.167,0.091-0.259,0.157
				c0.148-0.107,0.033-0.028,0-0.008l-0.138,0.078c-0.001,0,0,0-0.001,0l-0.077,0.025l-0.177,0.042l-0.093,0.006l-0.179-0.002
				l-0.096-0.01c0.011,0,0.012,0,0.021,0c-0.001,0-0.001,0-0.001,0l-0.187-0.048l-0.078-0.026c-0.008-0.003-0.006-0.001-0.011-0.004
				c-0.002-0.001,0,0-0.003-0.001l-0.157-0.079l-0.138-0.088l-0.026-0.022l-0.057-0.056l-0.053-0.059l-0.02-0.029l-0.091-0.169
				c-0.075-0.165-0.306-0.218-0.457-0.151c-0.172,0.076-0.252,0.252-0.212,0.436c0.15,0.692,0.762,1.169,1.434,1.28
				c0.348,0.058,0.713,0.054,1.048-0.068c0.22-0.079,0.489-0.194,0.616-0.404c0.086-0.142,0.146-0.311,0.176-0.476
				c0.027-0.155-0.006-0.305-0.137-0.404C54.621,37.769,54.441,37.74,54.313,37.827z"/>
			<path fill="#372E7C" d="M53.09,38.225C53.128,38.233,53.188,38.229,53.09,38.225L53.09,38.225z"/>
			<path fill="#372E7C" d="M62.257,38.533c-0.004-0.008-0.012-0.018-0.021-0.026c0.004,0.006,0.006,0.008,0.008,0.013L62.257,38.533
				z"/>
			<path fill="#372E7C" d="M62.815,38.772c-0.008,0-0.014,0-0.021,0.002l0.014-0.001L62.815,38.772z"/>
			<path fill="#372E7C" d="M63.905,37.815c-0.101,0.108-0.201,0.217-0.307,0.32c-0.098,0.096-0.179,0.205-0.273,0.304l-0.157,0.152
				c-0.007,0.006-0.004,0.004-0.008,0.008c-0.001,0,0,0-0.002,0.001l-0.09,0.062l-0.094,0.054l-0.037,0.021l-0.049,0.017
				l-0.073,0.02c0.007-0.001,0.015-0.001,0.02,0l-0.027,0.001l-0.003,0.001c-0.057,0.015-0.038,0.006-0.011,0l-0.047,0.003
				l-0.087-0.002l-0.155-0.042l-0.059-0.03l-0.053-0.034l-0.114-0.112l-0.022-0.024c0.005,0.01,0.001,0.008-0.014-0.013l-0.018-0.02
				c0.004,0,0.007,0.004,0.01,0.007c0-0.001,0-0.001-0.002-0.003l-0.014-0.023l0.001-0.001l-0.014-0.056
				c-0.085-0.365-0.654-0.37-0.735,0c-0.041,0.18-0.044,0.365,0.01,0.543c0.069,0.229,0.213,0.383,0.396,0.522
				c0.265,0.199,0.627,0.307,0.957,0.287c0.427-0.024,0.794-0.224,1.115-0.499c0.151-0.129,0.306-0.284,0.411-0.455
				c0.092-0.148,0.167-0.307,0.244-0.463c0.1-0.202,0.067-0.438-0.115-0.581C64.321,37.649,64.057,37.65,63.905,37.815z"/>
			<path fill="#372E7C" d="M53.103,33.628c0.132-0.039,0.264-0.075,0.397-0.108c0.186-0.046,0.386-0.063,0.516-0.221
				c0.161-0.197,0.196-0.582-0.09-0.707c-0.149-0.066-0.263-0.097-0.427-0.057l-0.198,0.059c-0.139,0.044-0.277,0.092-0.415,0.143
				c-0.301,0.114-0.597,0.242-0.885,0.387c-0.545,0.276-1.051,0.616-1.525,1.002c-0.321,0.262,0.103,0.821,0.443,0.58
				c0.448-0.316,0.942-0.599,1.436-0.81C52.586,33.799,52.852,33.705,53.103,33.628z"/>
			<path fill="#372E7C" d="M65.16,34.638c-0.692-0.415-1.512-0.617-2.313-0.547c-0.154,0.013-0.287,0.123-0.287,0.29
				c0,0.171,0.133,0.27,0.287,0.289c0.126,0.015,0.315,0.054,0.466,0.097c0.09,0.026,0.179,0.055,0.267,0.086l0.099,0.039
				l0.004,0.001l0.063,0.028c0.158,0.073,0.311,0.159,0.456,0.255l0.201,0.144c-0.097-0.089,0.019,0.016,0.038,0.033l0.104,0.092
				c0.226,0.208,0.567,0.2,0.76-0.052C65.486,35.152,65.423,34.795,65.16,34.638z"/>
			<path fill="#372E7C" d="M69.587,46.825c0.934-0.361,1.894-0.628,2.867-0.844c-0.087,0.448-0.127,0.916-0.034,1.326
				c0.164,0.723,0.756,0.848,1.395,0.702c1.643-0.375,3.28-0.772,4.92-1.158c0.559-0.132,0.321-0.993-0.236-0.869
				c-1.213,0.27-2.426,0.539-3.639,0.808c-0.288,0.063-0.576,0.127-0.865,0.19c-0.145,0.033-0.288,0.067-0.434,0.097
				c-0.041,0.007-0.169,0.003-0.197,0.033c-0.075-0.158,0.014-0.637,0.028-0.756c0.039-0.304,0.109-0.603,0.193-0.897
				c0.107-0.377-0.244-0.677-0.597-0.603c-1.244,0.263-2.455,0.641-3.63,1.134C68.861,46.197,69.064,47.026,69.587,46.825z"/>
			<path fill="#372E7C" d="M72.355,54.258c0.033,0.524,0.341,0.938,0.863,1.034c0.282,0.052,0.568-0.011,0.849-0.047
				c0.342-0.045,0.685-0.089,1.027-0.134c0.642-0.083,1.282-0.165,1.924-0.249c0.794-0.102,0.659-1.215-0.147-1.105
				c-1.082,0.148-2.165,0.324-3.25,0.443c-0.102,0.011-0.228-0.031-0.184,0.058c-0.053-0.107,0.007-0.362,0.018-0.479
				c0.036-0.41,0.032-0.777-0.145-1.158c-0.101-0.218-0.38-0.289-0.593-0.242c-0.456,0.099-0.912,0.197-1.368,0.297
				c-0.207,0.045-0.414,0.091-0.622,0.134l-0.079,0.013c-0.082-0.065-0.184-0.113-0.295-0.106c-0.432,0.031-0.593,0.515-0.362,0.854
				c0.305,0.449,0.948,0.224,1.378,0.142c0.349-0.067,0.698-0.133,1.048-0.199c-0.009,0.064-0.019,0.132-0.024,0.183
				C72.373,53.882,72.343,54.069,72.355,54.258z"/>
			<path fill="#372E7C" d="M85.255,93.875c-2.896-5.24-4.407-11.132-6.964-16.535c-2.275-4.809-5.873-10.199-11.356-11.52
				c-1.463-0.352-2.977-0.451-4.448-0.763c-0.732-0.156-1.476-0.341-2.154-0.667c-0.81-0.389-1.155-0.894-1.597-1.664
				c-0.114-0.201-0.351-0.124-0.417,0.039l-0.109-0.063l-0.072-0.053l-0.006-0.004L58.09,62.61l-0.144-0.14l-0.071-0.082
				l-0.007-0.009l-0.025-0.036l-0.105-0.17l-0.048-0.098l-0.009-0.017l0.006,0.015l-0.019-0.05
				c-0.051-0.134-0.185-0.239-0.333-0.191c-0.135,0.045-0.235,0.19-0.189,0.336c0.158,0.496,0.5,0.916,0.938,1.175
				c-0.06,0.031-0.113,0.073-0.146,0.15c-3.471,7.913-12.974,7.929-17.243,0.891c-0.007-0.026-0.019-0.045-0.037-0.062
				c-0.054-0.091-0.11-0.177-0.163-0.269c-0.093-0.167-0.382-0.056-0.313,0.134c0.033,0.09,0.073,0.172,0.107,0.261
				c-2.61,1.637-5.403,2.96-8.174,4.29c-2.755,1.322-5.707,2.583-8.139,4.474c-2.099,1.631-3.652,3.896-4.74,6.316
				c-1.245,2.767-2.178,5.892-2.569,8.908c-0.07,0.542,0.754,0.602,0.905,0.125c0.932-2.945,1.362-5.979,2.671-8.812
				c1.155-2.499,2.819-4.821,5.134-6.338c4.864-3.179,10.324-5.234,15.02-8.702c3.506,8.238,15.193,7.367,18.239-0.92
				c0.031-0.084,0.021-0.161-0.007-0.229c0.441,0.778,0.958,1.279,1.915,1.658c1.282,0.507,2.673,0.709,4.025,0.928
				c1.247,0.202,2.444,0.392,3.604,0.92c1.36,0.619,2.617,1.459,3.729,2.466c4.541,4.11,6.709,10.255,8.854,15.848
				c1.153,3.011,2.298,6.05,3.868,8.869C84.854,94.664,85.484,94.293,85.255,93.875z"/>
			<path fill="#372E7C" d="M41.083,41.818c0.297,0.125,0.61-0.042,0.708-0.344c0.042-0.128,0.082-0.259,0.078-0.395
				c-0.003-0.104-0.009-0.198-0.001-0.302c0.017-0.225-0.005-0.446-0.049-0.666c-0.08-0.405-0.281-0.749-0.61-0.995
				c-0.284-0.213-0.672-0.314-1.017-0.209c-0.3,0.092-0.52,0.34-0.62,0.634c-0.103,0.3-0.053,0.665,0.196,0.878
				c0.155,0.133,0.367-0.074,0.225-0.227c-0.124-0.133-0.12-0.319-0.059-0.472c0.035-0.085,0.083-0.155,0.148-0.216
				c0.06-0.059,0.119-0.094,0.203-0.114c0.201-0.05,0.418,0.053,0.556,0.183l0.066,0.066l0.032,0.034l0.106,0.175l0.021,0.042
				l-0.002-0.006l0.029,0.093l0.026,0.111l0.01,0.056l0,0.021l0,0.132l-0.004,0.057l-0.004,0.038l0-0.007
				c-0.019,0.088-0.035,0.173-0.061,0.26l-0.018,0.056l0,0.003l-0.033,0.046l0.009-0.011c-0.085,0.102-0.129,0.206-0.187,0.324
				C40.693,41.349,40.779,41.688,41.083,41.818z"/>
			<path fill="#372E7C" d="M70.773,89.232c-0.566-4.056-0.927-8.159-1.628-12.194c-0.02-0.109-0.188-0.08-0.188,0.026
				c0.034,4.098,0.575,8.209,1.072,12.27c0.233,1.911,0.484,3.82,0.754,5.726c0.28,1.982,0.35,4.301,1.085,6.169
				c0.134,0.343,0.64,0.312,0.655-0.09c0.07-1.863-0.524-3.873-0.82-5.709C71.373,93.366,71.063,91.302,70.773,89.232z"/>
			<path fill="#372E7C" d="M30.309,85.331c-0.285,1.074-0.172,2.297-0.232,3.402c-0.064,1.163-0.138,2.326-0.216,3.487
				c-0.162,2.422-0.413,4.836-0.751,7.238c-0.083,0.589,0.81,0.839,0.889,0.247c0.319-2.393,0.564-4.795,0.715-7.206
				c0.075-1.209,0.116-2.415,0.12-3.627c0.004-1.139,0.147-2.436-0.157-3.542C30.627,85.149,30.358,85.146,30.309,85.331z"/>
			<path fill="#372E7C" d="M59.877,47.204c-0.524-0.025-1.05-0.031-1.575-0.029c-1.072,0.002-2.144,0.048-3.214,0.13
				c-0.544,0.041-0.558,0.882,0,0.867c1.051-0.029,2.102-0.019,3.151,0.03c0.504,0.023,1.008,0.059,1.512,0.094
				c0.537,0.037,1.11,0.171,1.631,0.015c0.36-0.109,0.478-0.664,0.11-0.853C60.994,47.203,60.427,47.232,59.877,47.204z"/>
			<path fill="#372E7C" d="M60.495,51.539c-2.127,0.563-4.412,0.617-6.547,0.083c-0.42-0.106-0.585,0.515-0.179,0.651
				c2.276,0.762,4.675,0.871,6.996,0.257C61.397,52.363,61.13,51.371,60.495,51.539z"/>
		</g>
		<path fill="#FFFFFF" d="M47.981,18.485c1.522-1.149,3.286-2.165,5.1-2.747c1.95-0.626,3.771-0.399,5.741-0.601
			c0.974-0.1,1.205-1.403,0.233-1.744c-4.025-1.405-9.209,1.069-11.813,4.122C46.822,18.006,47.39,18.932,47.981,18.485z"/>
		<path fill="#FFFFFF" d="M63.075,16.204c1.719,0,1.721-2.701,0-2.701C61.356,13.503,61.354,16.204,63.075,16.204z"/>
	</g>
</g>
</svg>
