<?xml version="1.0" encoding="utf-8"?>
<!-- Generator: Adobe Illustrator 16.0.0, SVG Export Plug-In . SVG Version: 6.00 Build 0)  -->
<!DOCTYPE svg PUBLIC "-//W3C//DTD SVG 1.1//EN" "http://www.w3.org/Graphics/SVG/1.1/DTD/svg11.dtd">
<svg version="1.1" id="Layer_1" xmlns="http://www.w3.org/2000/svg" xmlns:xlink="http://www.w3.org/1999/xlink" x="0px" y="0px"
	 width="100px" height="100px" viewBox="0 0 100 100" enable-background="new 0 0 100 100" xml:space="preserve">
<ellipse fill="#F8DEE9" cx="50.108" cy="49.945" rx="49.342" ry="49.819"/>
<g>
	<path fill="#FFFFFF" d="M25.409,50.082c-0.172,0.711,0.145,1.515,0.755,1.919c0.064,0.041,0.133,0.08,0.176,0.146
		c0.045,0.067,0.056,0.149,0.065,0.229c0.038,0.327,0.027,0.744-0.276,0.871c-0.097,0.042-0.206,0.039-0.307,0.07
		c-0.371,0.118-0.464,0.599-0.446,0.986c0.014,0.306,0.081,0.646,0.338,0.808c0.291,0.181,0.667,0.038,0.976-0.107
		c0.817-0.386,1.69-0.866,2.015-1.713c0.196-0.507,0.159-1.069,0.104-1.611c-0.079-0.787-0.189-1.571-0.332-2.35L25.409,50.082z"/>
	<path fill="#FFFFFF" d="M6.934,50.016c-0.83,0.647-1.036,1.879-0.7,2.877c0.041,0.121,0.089,0.242,0.144,0.358
		c0.252,0.54,0.653,1.017,1.163,1.319c0.464,0.275,1.014,0.404,1.552,0.364c0.05-0.005,0.107-0.012,0.139-0.055
		c0.033-0.044,0.021-0.105,0.007-0.161c-0.154-0.587-0.413-1.146-0.76-1.646c0.152,0.066,0.338-0.016,0.438-0.146
		c0.102-0.132,0.136-0.303,0.16-0.468c0.106-0.747,0.046-1.515-0.174-2.235c-0.097,0.035-0.192,0.071-0.289,0.105L6.934,50.016z"/>
	<path fill="#FFFFFF" d="M20.303,84.954c-0.008,0.097-0.018,0.194-0.026,0.29c-0.345,3.861-0.58,4.976,1.03,5.888
		c1.649,0.934,1.147,2.37,3.155,2.729c2.008,0.358,3.945-0.217,4.016-1.22c0.072-1.008-1.268-1.494-2.438-3.521
		c-1.171-2.029-1.578-4.311-1.578-4.311L20.303,84.954z"/>
	<path fill="#E2DFF0" d="M22.592,87.092c-0.035,1.025,0.634,1.941,1.396,2.622c0.762,0.686,1.651,1.234,2.304,2.021
		c0.234,0.286,0.443,0.625,0.431,0.992c-0.02,0.643-0.664,1.056-1.231,1.354c0.555-0.119,1.11-0.238,1.665-0.357
		c0.462-0.1,0.979-0.238,1.209-0.655c0.227-0.406,0.071-0.931-0.211-1.304c-0.282-0.375-0.671-0.651-0.99-0.994
		c-0.555-0.596-0.867-1.377-1.167-2.138c-0.244-0.62-0.487-1.241-0.731-1.861c-0.149-0.378-0.38-0.816-0.786-0.838L22.592,87.092z"
		/>
	<path fill="#FFFFFF" d="M8.9,85.887c0.144,2.299-0.676,5.04-1.793,6.321c-1.117,1.283-1.936,2.874,0.861,3.377
		c2.796,0.503,4.302-1.438,4.374-2.801c0.072-1.365,1.793-1.938,1.721-3.306c-0.072-1.364,0-2.729,0-2.729L8.9,85.887z"/>
	<path fill="#E2DFF0" d="M10.128,87.773c0.325,0.51,1.213,0.271,1.612,0.727c0.171,0.192,0.208,0.476,0.182,0.736
		c-0.039,0.404-0.206,0.782-0.37,1.151c-0.454,1.027-0.917,2.065-1.641,2.921c-0.724,0.857-1.756,1.514-2.875,1.528
		c1.406,0.761,3.392,0.62,4.35-0.662c0.248-0.333,0.415-0.717,0.615-1.079c0.5-0.911,1.208-1.7,1.674-2.626
		c0.466-0.93,0.651-2.107,0.079-2.976c-0.078,0.103-0.207,0.165-0.336,0.161L10.128,87.773z"/>
	<path fill="#6F73B6" d="M5.748,50.506l3.409,0.259l1.178-3.381c2.438,1.868,10.47,0.792,11.475,0.792
		c1.004,0,2.51-0.719,2.51-0.719l0.215,2.299c0,0,3.084,0.717,5.093-1.078c-0.575-4.526-2.765-21.421-3.443-23.489
		c-0.679-2.068-2.008-4.382-6.239-5.245c-0.789,2.658-4.162,2.429-6.779,0.748c-4.05,1.048-5.556,3.635-6.202,6.005
		c-0.646,2.371-1.076,14.152-1.076,14.152L5.748,50.506z"/>
	<path fill="#6165AE" d="M10.07,28.329c-0.33,1.914-0.624,3.833-0.883,5.756C8.483,39.289,8.03,44.53,7.994,49.78
		c-0.003,0.359,0.018,0.767,0.29,1c0.328,0.282,0.868,0.139,1.151-0.188c0.283-0.326,0.374-0.773,0.447-1.2
		c0.278-1.613,0.457-3.253,0.356-4.886L10.07,28.329z"/>
	<path fill="#6165AE" d="M27.14,49.826c0.01-0.004,0.006-0.05,0.006-0.057c0.063-2.418-0.416-4.952-0.658-7.352
		c-0.179-1.754-0.497-3.418-0.612-5.186c-0.127-1.974-0.254-3.949-0.382-5.922c-0.058-0.904-0.117-1.809-0.266-2.7
		c-0.163-0.981-0.434-1.94-0.704-2.898c-0.272-0.966-0.554-1.951-1.126-2.775c-0.379-0.545-0.871-0.998-1.375-1.428
		c-0.155-0.132-1.952-1.475-1.857-1.646c-0.001,0.001-1.106,1.997-2.97,2.14c0.559-0.042,0.948,1.858,1.123,2.231
		c0.393,0.833,0.898,1.406,1.173,2.307c0.345,1.129,0.6,2.284,0.802,3.447c0.406,2.339,0.576,4.711,0.746,7.078
		c0.142,1.953,0.282,3.907,0.423,5.86c0.174,2.407-0.721,3.421-1.873,5.325c1.458,0.139,3.216-0.415,4.68-0.626l0.287,2.297
		C24.558,49.921,26.326,50.162,27.14,49.826z"/>
	<path fill="#FFFFFF" d="M22.751,11.833c0,0.804-0.803,1.21-1.515,1.065c-0.2-0.039-0.398,0.084-0.398,0.307
		c-0.032,2.183-1.592,3.586-3.557,4.191c-0.115,0.038-0.176,0.145-0.183,0.252c0,0.061,0.007,0.115,0.038,0.153
		c0.038,0.076,0.107,0.123,0.214,0.114c0.359-0.045,0.695-0.122,1.01-0.252c0.022-0.007,0.046-0.015,0.068-0.023
		c-0.015,0.077-0.029,0.153-0.029,0.237c-0.032,0.222-0.024,0.452,0.029,0.675c0.077,0.321,0.245,0.628,0.475,0.873
		c0.207,0.215,0.459,0.346,0.735,0.429c-0.191,0.475-0.482,0.927-0.919,1.188c-0.564,0.33-1.262,0.482-1.912,0.491h-0.115
		c-1.07-0.017-2.104-0.399-2.914-1.08c0.298-0.146,0.536-0.384,0.673-0.691c0.123,0.009,0.26-0.068,0.275-0.237
		c0.045-0.475-0.023-0.951-0.123-1.417c-0.046-0.23-0.107-0.452-0.177-0.674c-0.007-0.015-0.015-0.023-0.015-0.038
		c0.336,0.13,0.696,0.222,1.079,0.245c0.183,0.016,0.275-0.153,0.245-0.306c-0.008-0.069-0.031-0.13-0.084-0.169
		c-0.023-0.023-0.053-0.039-0.092-0.046c-1.881-0.506-3.189-1.9-3.212-3.915c0-0.223-0.199-0.345-0.398-0.307
		c-0.711,0.145-1.514-0.269-1.514-1.065c0-0.782,0.841-1.149,1.438-0.689c0.199,0.153,0.482-0.062,0.482-0.284v-0.223
		c0.061-0.03,0.115-0.084,0.107-0.176c-0.016-0.276-0.054-0.543-0.115-0.813c0-1.118-0.016-2.244-0.031-3.362
		c0.045-0.046,0.076-0.1,0.084-0.169c0.046-0.26,0.1-0.521,0.138-0.782c0.015-0.061,0.03-0.129,0.037-0.191
		c0.008-0.039,0.008-0.077,0.016-0.108c2.088,0.782,4.33,1.111,6.564,0.874c0.359-0.031,0.765-0.106,1.169-0.207
		c0.154,0.084,0.322,0.13,0.498,0.146c-0.039,0.429-0.031,0.874,0.03,1.303c-0.015,1.241-0.03,2.475-0.022,3.708
		c0,0.222,0.283,0.437,0.481,0.284C21.909,10.684,22.744,11.051,22.751,11.833z"/>
	<path fill="#E2DFF0" d="M20.166,19.863c-0.728,1.356-2.364,2.169-3.894,1.924c0.16-0.046,0.306-0.131,0.42-0.252
		c0.138-0.138,0.237-0.315,0.299-0.499c0.122-0.336,0.122-0.705,0.129-1.064c0.008-0.722,0.008-1.45,0.016-2.169
		c0.038,0.076,0.107,0.123,0.214,0.114c0.359-0.045,0.695-0.122,1.01-0.252c0.007,0.069,0.022,0.146,0.039,0.214
		C18.628,18.768,19.301,19.55,20.166,19.863z"/>
	<path fill="#E2DFF0" d="M22.751,11.833c0,0.804-0.803,1.21-1.515,1.065c-0.2-0.039-0.398,0.084-0.398,0.307
		c-0.032,2.183-1.592,3.586-3.557,4.191c-0.115,0.038-0.176,0.145-0.183,0.252c-0.467,0.008-0.941-0.1-1.362-0.314
		c-0.099-0.038-0.199-0.092-0.291-0.154c0.068,0,0.138-0.008,0.206-0.015c1.063-0.084,2.089-0.529,2.876-1.241
		c0.834-0.759,1.393-1.825,1.545-2.951c0.261-1.923-0.636-3.854-0.451-5.785c-0.788,0.476-1.761,0.56-2.662,0.398
		c-0.903-0.161-1.752-0.543-2.57-0.95c-0.681-0.337-1.377-0.735-1.851-1.303c0.015-0.061,0.03-0.129,0.037-0.191
		c0.008-0.039,0.008-0.077,0.016-0.108c2.088,0.782,4.33,1.111,6.564,0.874c0.359-0.031,0.765-0.106,1.169-0.207
		c0.154,0.084,0.322,0.13,0.498,0.146c-0.039,0.429-0.031,0.874,0.03,1.303c-0.015,1.241-0.03,2.475-0.022,3.708
		c0,0.222,0.283,0.437,0.481,0.284C21.909,10.684,22.744,11.051,22.751,11.833z"/>
	<path fill="#372E7C" d="M14.857,9.753l-0.005-0.129c-0.021-0.075-0.079-0.157-0.149-0.193c-0.074-0.041-0.166-0.06-0.249-0.033
		c-0.077,0.025-0.154,0.074-0.192,0.148c-0.139,0.269-0.18,0.581-0.098,0.875c0.024,0.085,0.083,0.163,0.16,0.208
		c0.073,0.043,0.184,0.062,0.267,0.036c0.084-0.029,0.166-0.081,0.208-0.16c0.042-0.08,0.066-0.182,0.035-0.268l-0.031-0.124
		c-0.003-0.046-0.003-0.091,0-0.137c0.011-0.057,0.023-0.115,0.046-0.169l-0.033,0.077l0.004-0.012L14.857,9.753z"/>
	<path fill="#372E7C" d="M18.882,9.521c-0.058-0.057-0.154-0.101-0.237-0.097c-0.087,0.004-0.176,0.032-0.237,0.097
		c-0.062,0.068-0.091,0.146-0.098,0.238c-0.011,0.192-0.023,0.383-0.036,0.575c-0.005,0.091,0.046,0.199,0.109,0.263
		c0.064,0.064,0.169,0.113,0.262,0.108c0.096-0.004,0.195-0.036,0.262-0.108c0.063-0.07,0.114-0.165,0.108-0.263
		c-0.011-0.192-0.024-0.383-0.036-0.575C18.975,9.67,18.946,9.586,18.882,9.521z"/>
	<path fill="#372E7C" d="M14.773,7.958c-0.277-0.012-0.559,0.02-0.826,0.096c-0.274,0.078-0.523,0.243-0.742,0.422
		c-0.073,0.06-0.069,0.184-0.015,0.251c0.058,0.073,0.164,0.1,0.247,0.049c0.216-0.128,0.408-0.191,0.647-0.271
		c0.116-0.039,0.236-0.07,0.356-0.091c0.099-0.016,0.208-0.024,0.333-0.025c0.113-0.001,0.22-0.098,0.214-0.216
		C14.982,8.052,14.894,7.962,14.773,7.958z"/>
	<path fill="#372E7C" d="M18.222,8.281c0.147,0.031,0.296,0.067,0.441,0.11c0.276,0.081,0.528,0.229,0.733,0.433
		c0.176,0.173,0.452-0.106,0.271-0.271c-0.255-0.234-0.564-0.404-0.9-0.492c-0.167-0.043-0.325-0.059-0.496-0.037
		c-0.171,0.021-0.335,0.064-0.494,0.129l0.013,0.095C17.936,8.242,18.081,8.252,18.222,8.281z"/>
	<path fill="#372E7C" d="M17.784,14.357c-0.316,0.276-0.756,0.438-1.169,0.491c-0.446,0.059-0.902-0.033-1.286-0.27
		c-0.094-0.059-0.222-0.019-0.277,0.073c-0.063,0.104-0.015,0.212,0.072,0.278c0.433,0.33,0.989,0.486,1.529,0.466
		c0.575-0.021,1.097-0.256,1.501-0.667C18.396,14.486,18.036,14.136,17.784,14.357z"/>
	<path fill="#372E7C" d="M16.161,13.848c0.125,0.009,0.249,0.011,0.374,0.008c0.128-0.004,0.278-0.003,0.398-0.047
		c0.127-0.044,0.253-0.095,0.375-0.153c0.091-0.042,0.118-0.168,0.083-0.254c-0.041-0.098-0.139-0.137-0.24-0.118
		c-0.136,0.026-0.191,0.03-0.319,0.044c-0.132,0.015-0.263,0.061-0.394,0.084l-0.095,0.015c-0.007,0.002-0.007,0.002-0.012,0.003
		c-0.001,0-0.008,0-0.026,0.003l-0.193,0.017c-0.083,0.005-0.158,0.005-0.219,0.073l-0.055,0.14l0.105,0.149
		C16.004,13.846,16.092,13.843,16.161,13.848z"/>
	<path fill="#484098" d="M24.763,86.463c-1.508,0.381-3.022,0.453-4.56,0.169c-0.626-4.827-1.01-9.686-1.415-14.534
		c-0.215-2.589-0.421-5.189-0.657-7.778c-0.185-2.077-0.276-4.328-0.766-6.381c0.069-0.231,0.054-0.491,0.061-0.736
		c0.023-0.391,0.039-0.774,0.054-1.167c0.03-0.719,0.045-1.438,0.061-2.158c0.016-0.721,0.008-1.442-0.03-2.162
		c-0.03-0.703,0.038-1.517-0.237-2.176h-0.115c-0.237,0.675-0.153,1.473-0.176,2.176c-0.031,0.72-0.054,1.441-0.062,2.162
		c-0.015,0.72-0.038,1.439-0.061,2.158c-0.015,0.393-0.039,0.776-0.054,1.167c-0.015,0.219-0.039,0.437-0.015,0.644
		c-0.505,2.083-0.604,4.352-0.803,6.459c-0.252,2.736-0.482,5.48-0.719,8.214c-0.428,4.987-0.833,9.978-1.483,14.94
		c-1.53,0.283-3.053,0.215-4.56-0.169c0.505-10.405,0.666-20.832,1.002-31.245c0.084-2.666,0.207-5.326,0.207-7.992
		c0.198,0.123,0.451,0.198,0.788,0.268c1.422,0.291,2.875,0.467,4.33,0.536c2.738,0.131,5.476-0.137,8.138-0.758
		c-0.007,6.367,0.329,12.743,0.466,19.108C24.304,73.629,24.449,80.05,24.763,86.463z"/>
	<path fill="#372E7C" d="M17.147,48.582c0,0-3.156,25.571-3.251,28.35c-0.096,2.777-2.295,11.206-2.008,11.206
		c0.287,0,1.897-0.679,1.897-0.679l3.33-29.137L17.147,48.582z"/>
	<path fill="#372E7C" d="M17.108,49.023c0.003,3.101,0.005,6.2,0.007,9.299c0.001,0.312,0.001,0.626,0.073,0.931
		c0.092,0.389,0.294,0.738,0.48,1.089c1.53,2.898,2.058,6.201,2.563,9.437c0.286,1.831,0.572,3.665,0.859,5.497
		c0.621,3.972,1.24,7.944,1.776,11.926c0.846-0.113,1.691-0.229,2.536-0.343c-0.366-5.577-0.542-11.165-0.528-16.753
		c0.003-1.343,0.019-2.681-0.014-4.021c-0.145-6.133-1.249-12.23-1.115-18.364c-2.281,0.538-4.639,0.752-6.98,0.634L17.108,49.023z"
		/>
	<path fill="#372E7C" d="M29.941,48.397c-1.101-5.877-1.989-11.754-2.639-17.707c-0.268-2.469-0.49-5.395-1.797-7.571
		c-0.536-0.881-1.309-1.563-2.188-2.084c-0.826-0.49-2.042-1.149-3.029-1.18c0-0.13-0.007-0.26-0.031-0.398
		c-0.031-0.184-0.229-0.215-0.367-0.139c-0.443-0.176-0.811-0.466-0.956-0.918c-0.077-0.247-0.092-0.491-0.053-0.745
		c0.015-0.083,0.045-0.168,0.068-0.252c1.393-0.759,2.356-2.253,2.501-3.862c1.048,0.03,2.035-0.706,1.928-1.87
		c-0.092-0.965-1.048-1.57-1.912-1.317v-0.07c0.298-0.552,0.596-1.104,0.887-1.655c0.299-0.544,0.597-1.127,0.72-1.748
		c0.152-0.75-0.055-1.594-0.598-2.076c0.039-0.1,0.068-0.2,0.092-0.299c0.413-0.475,0.612-1.096,0.413-1.886
		c-0.299-1.179-1.393-1.854-2.486-2.176c-1.217-0.36-2.555-0.521-3.81-0.429c-1.17,0.084-2.333,0.39-3.335,1.012
		c-0.444,0.275-0.857,0.605-1.209,0.98c-0.391,0.414-0.604,0.896-0.925,1.349c-0.168,0.245-0.413,0.26-0.65,0.437
		c-0.213,0.168-0.367,0.383-0.481,0.635c-0.252,0.591-0.13,1.227,0.077,1.817c0.26,0.72,0.558,1.432,0.841,2.145
		c0.214,0.551,0.429,1.149,0.72,1.686v0.276c-0.865-0.253-1.837,0.352-1.913,1.324c-0.1,1.166,0.88,1.893,1.927,1.862
		c0.131,1.464,0.941,2.896,2.188,3.617v0.015c0.031,0.115,0.061,0.214,0.092,0.33c0.053,0.222,0.099,0.444,0.129,0.675
		c0.045,0.359,0.062,0.719,0.069,1.08c-0.16,0.413-0.559,0.751-1.002,0.781c-0.153,0.007-0.245,0.107-0.268,0.23
		c-2.433,1.011-4.712,2.184-5.775,4.736c-1.109,2.642-1.225,5.608-1.316,8.436c-0.107,3.478-0.36,6.941-0.55,10.412
		c-0.101,1.816-0.191,3.64-0.146,5.464c0.008,0.359-0.039,0.751,0.268,1.003c0.215,0.169,0.513,0.274,0.85,0.361
		c-0.108,0.167-0.207,0.351-0.253,0.542c-0.077,0.276-0.099,0.583-0.092,0.868c0.015,0.603,0.184,1.216,0.513,1.724
		c0.306,0.487,0.765,0.881,1.277,1.14c0.391,0.193,1.17,0.553,1.561,0.222v-0.045c0.069-0.046,0.115-0.132,0.1-0.222
		c-0.07-0.345-0.207-0.684-0.39-0.979c-0.092-0.155-0.199-0.301-0.314-0.432l-0.054-0.045c0.177-0.062,0.336-0.162,0.444-0.3
		c0.298-0.36,0.283-0.852,0.222-1.28c-0.038-0.244-0.092-0.482-0.123-0.722c-0.016-0.128-0.023-0.259-0.007-0.39
		c0.016-0.121,0.068-0.229,0.046-0.359l-0.131-0.084l-0.099-0.078c-0.244-0.092-0.558-0.075-0.81-0.099
		c-0.215-0.015-0.421-0.031-0.628-0.039c-0.245-0.054-0.482-0.107-0.727-0.16c-0.16-0.039-0.328-0.078-0.496-0.115
		c-0.383,0-0.521-0.168-0.414-0.513c-0.183-0.598-0.007-1.548,0-2.177c0.023-1.524,0.092-3.05,0.176-4.575
		c0.169-2.996,0.344-5.976,0.421-8.973c0.061-2.621,0.137-5.317,0.994-7.815c0.941-2.758,3.144-4,5.675-5.088
		c1.018,1.059,2.479,1.647,3.94,1.587c0.826-0.032,1.69-0.238,2.333-0.766c0.291-0.245,0.527-0.552,0.688-0.897
		c0.084-0.176,0.13-0.344,0.145-0.521c0.866,0.606,2.035,0.828,2.938,1.418c1.224,0.789,1.966,1.878,2.417,3.256
		c0.842,2.582,1.072,5.325,1.333,8.015c0.504,5.31,1.453,10.589,2.439,15.837c-1.14,0.674-2.479,1.066-3.817,1.134l-0.122-0.116
		c-0.099-0.03-0.214,0.031-0.252,0.124c-0.123,0-0.246,0-0.367-0.008c-0.061-0.643-0.13-1.295-0.191-1.939
		c0.13-0.145,0.092-0.382-0.053-0.505c-0.008-0.084-0.017-0.168-0.023-0.26c-0.184-3.271-0.366-6.551-0.543-9.824
		c-0.099-1.715-0.191-3.423-0.283-5.141c-0.092-1.646-0.1-3.356-0.475-4.966c-0.023-0.085-0.13-0.053-0.145,0.017
		c-0.208,1.754-0.016,3.57,0.076,5.332c0.077,1.648,0.162,3.294,0.245,4.95c0.161,3.302,0.329,6.605,0.498,9.908
		c-2.509,0.636-5.087,0.965-7.68,0.912c-1.4-0.024-2.792-0.154-4.178-0.383c-0.297-0.054-0.779-0.054-1.046-0.199
		c-0.429-0.237-0.452-0.506-0.505-0.989c-0.069-0.666,0.008-1.395,0.016-2.069c0.015-2.758,0.022-5.518,0.03-8.275
		c0.007-2.789,0.214-5.692-0.153-8.459c-0.007-0.068-0.13-0.106-0.138-0.023c-0.458,3.082-0.245,6.322-0.275,9.426
		c-0.039,3.194-0.1,6.389-0.092,9.592c0,0.437,0.077,0.736,0.246,0.951c-0.513,5.018-0.543,10.099-0.712,15.141
		c-0.176,5.416-0.321,10.832-0.52,16.25c-0.1,2.782-0.215,5.561-0.352,8.347l0.022,0.12c-0.337,1.403-0.88,2.765-1.622,4.001
		c-0.353,0.599-0.773,1.165-0.995,1.824c-0.184,0.534-0.306,1.241,0.268,1.561c0.634,0.361,1.453,0.546,2.172,0.623
		c0.673,0.075,1.369,0.008,2.004-0.247c0.573-0.229,1.078-0.596,1.438-1.094c0.444-0.607,0.543-1.389,0.987-1.996
		c0.475-0.646,1.01-1.133,1.301-1.907c0.267-0.726,0.313-1.497,0.167-2.258l0.024-0.061c0.703-5.074,1.124-10.185,1.56-15.288
		c0.237-2.744,0.467-5.485,0.72-8.222c0.122-1.324,0.306-2.687,0.428-4.046c0.123,1.319,0.298,2.635,0.413,3.917
		c0.245,2.642,0.459,5.295,0.674,7.945c0.412,4.959,0.811,9.929,1.491,14.864c0.023,0.154,0.16,0.222,0.297,0.222
		c-0.091,0.654-0.121,1.31-0.068,1.969c0.054,0.66,0.306,1.157,0.879,1.496c0.291,0.168,0.59,0.298,0.834,0.528
		c0.252,0.245,0.443,0.536,0.634,0.819c0.353,0.536,0.704,1.074,1.255,1.425c1.125,0.714,2.586,0.492,3.802,0.209
		c0.573-0.131,1.248-0.263,1.393-0.929c0.138-0.629-0.253-1.147-0.651-1.586c-0.597-0.675-1.132-1.389-1.584-2.17
		c-0.443-0.758-0.764-1.546-1.086-2.359c0.046-0.051,0.069-0.122,0.062-0.191c-0.329-6.5-0.474-13.002-0.658-19.509
		c-0.169-6.375-0.13-12.824-0.765-19.177l0.175-0.038c0.055,0.712,0.116,1.432,0.169,2.145c0.032,0.337,0.544,0.346,0.544,0.032
		c0.091,0.015,0.183,0.022,0.274,0.036c-0.015,0.331,0.031,0.668,0.138,0.984c0.077,0.221,0.184,0.435,0.314,0.636
		c0.145,0.213,0.321,0.367,0.535,0.505l0.063,0.016c0,0.167,0.007,0.345,0.007,0.514c0.007,0.105,0.092,0.207,0.206,0.198
		c0.78-0.016,1.384-0.766,1.263-1.533c-0.016-0.1-0.138-0.145-0.223-0.121c-0.107,0.021-0.138,0.121-0.13,0.214
		c0.069,0.458-0.283,0.903-0.711,1.01c0.007-0.396,0.015-0.802,0-1.202c-0.015-0.391-0.03-0.78-0.046-1.172
		c0.291-0.015,0.581-0.047,0.865-0.115c0.313-0.068,0.62-0.16,0.918-0.269c0.03,0.821,0.045,1.641,0.107,2.461
		c0.053,0.757,0.046,1.456-0.612,1.954c-0.497,0.366-1.132,0.552-1.721,0.704c-0.368,0.083-0.59,0.014-0.636-0.369
		c-0.03-0.281-0.015-0.566,0.046-0.848c0.024-0.124-0.145-0.207-0.221-0.093c-0.29,0.506-0.527,1.358,0.1,1.725
		c0.39,0.221,0.857,0.045,1.254-0.072c0.36-0.104,0.728-0.235,1.064-0.419c0.733-0.391,1.209-1.026,1.232-1.877
		c0.015-0.522-0.054-1.058-0.107-1.579c-0.053-0.575-0.115-1.142-0.168-1.709c0.343-0.137,0.689-0.306,1.009-0.498
		c0.13,0.016,0.268-0.061,0.321-0.184l0.031-0.023C30.324,48.857,30.186,48.466,29.941,48.397z M21.756,2.462l0.015,0.031
		l-0.015-0.008V2.462z M8.224,50.689c0.184,0.037,0.375,0.068,0.566,0.083l-0.016,0.047c-0.022,0.199-0.03,0.397,0,0.598
		c0.046,0.367,0.161,0.759,0.077,1.126c-0.062,0.26-0.23,0.46-0.49,0.474c-0.092,0-0.176-0.014-0.222-0.075
		c-0.099-0.132-0.061-0.384-0.069-0.544c0-0.498-0.008-0.995-0.015-1.495C8.132,50.85,8.194,50.772,8.224,50.689z M6.549,50.743
		c0.437,0.076,0.88,0.123,1.209,0.198c-0.046,0.499-0.1,0.988-0.146,1.486c-0.031,0.246-0.045,0.492,0.077,0.721
		c0.092,0.16,0.245,0.284,0.421,0.329l0.168,0.017l0.153,0.197c0.091,0.132,0.176,0.276,0.244,0.415
		c0.107,0.215,0.177,0.453,0.222,0.674c-0.092-0.015-0.184-0.038-0.26-0.061c-0.222-0.063-0.428-0.146-0.626-0.254
		c-0.429-0.238-0.796-0.581-1.072-0.979C6.389,52.695,6.32,51.662,6.549,50.743z M18.72,21.043c-0.566,0.33-1.263,0.483-1.914,0.491
		c-1.109,0.015-2.187-0.369-3.029-1.08c0.298-0.147,0.536-0.384,0.673-0.691c0.123,0.009,0.26-0.068,0.275-0.237
		c0.045-0.475-0.023-0.951-0.123-1.417c-0.046-0.23-0.107-0.453-0.177-0.675l-0.015-0.038c0.337,0.131,0.696,0.223,1.079,0.246
		c0.299,0.023,0.352-0.444,0.068-0.521c-1.881-0.506-3.189-1.9-3.212-3.915c0-0.223-0.199-0.345-0.398-0.307
		c-0.711,0.146-1.514-0.268-1.514-1.065c0-0.782,0.841-1.149,1.438-0.689c0.199,0.153,0.482-0.063,0.482-0.284v-0.222
		c0.061-0.031,0.115-0.084,0.107-0.177c-0.016-0.276-0.054-0.543-0.115-0.812c0-1.119-0.016-2.246-0.031-3.364l0.084-0.168
		c0.062-0.322,0.123-0.651,0.175-0.973l0.016-0.108c2.088,0.782,4.33,1.111,6.564,0.874c0.359-0.03,0.765-0.107,1.17-0.207
		c0.153,0.084,0.321,0.13,0.497,0.146c-0.039,0.428-0.031,0.873,0.031,1.303c-0.016,1.241-0.031,2.475-0.023,3.708
		c0,0.221,0.283,0.437,0.481,0.284c0.597-0.46,1.432-0.093,1.439,0.689c0,0.804-0.803,1.21-1.515,1.065
		c-0.2-0.038-0.398,0.084-0.398,0.307c-0.03,2.183-1.591,3.586-3.557,4.19c-0.268,0.084-0.237,0.552,0.069,0.522
		c0.383-0.047,0.742-0.14,1.078-0.276c-0.061,0.299-0.068,0.613,0,0.911c0.077,0.323,0.246,0.629,0.475,0.874
		c0.207,0.215,0.459,0.346,0.735,0.429C19.446,20.33,19.156,20.781,18.72,21.043z M13.571,90.14
		c-0.206,0.615-0.597,1.059-1.002,1.542c-0.788,0.934-0.834,2.298-1.943,2.965c-1.163,0.698-2.578,0.477-3.786,0.017
		c-0.161-0.063-0.298-0.086-0.375-0.245c-0.084-0.162-0.03-0.353,0.007-0.521c0.077-0.325,0.215-0.62,0.375-0.906
		c0.306-0.557,0.673-1.088,0.963-1.654c0.566-1.089,0.918-2.254,1.125-3.456c1.568,0.421,3.159,0.492,4.757,0.238
		c-0.022,0.054-0.03,0.113-0.015,0.189C13.801,88.914,13.763,89.542,13.571,90.14z M26.468,90.372
		c0.353,0.512,0.75,0.987,1.164,1.455c0.198,0.23,0.443,0.49,0.497,0.805c0.077,0.442-0.267,0.604-0.635,0.704
		c-1.101,0.277-2.462,0.582-3.542,0.046c-1.033-0.521-1.316-1.77-2.195-2.458c-0.244-0.183-0.527-0.3-0.796-0.452
		c-0.367-0.207-0.535-0.514-0.604-0.93c-0.121-0.712-0.099-1.457-0.121-2.181l0.03-0.071c1.545,0.248,3.083,0.186,4.605-0.198
		C25.198,88.255,25.795,89.384,26.468,90.372z M24.157,67.207c0.147,6.422,0.292,12.843,0.605,19.256
		c-1.508,0.381-3.022,0.453-4.56,0.169c-0.626-4.827-1.01-9.686-1.415-14.534c-0.213-2.592-0.421-5.189-0.657-7.778
		c-0.185-2.077-0.276-4.33-0.765-6.381c0.069-0.231,0.053-0.491,0.061-0.736c0.022-0.391,0.038-0.774,0.054-1.164
		c0.03-0.722,0.045-1.441,0.061-2.161c0.016-0.721,0.008-1.442-0.03-2.162c-0.03-0.703,0.038-1.517-0.237-2.176h-0.115
		c-0.237,0.675-0.153,1.473-0.175,2.176c-0.03,0.72-0.054,1.441-0.062,2.162c-0.015,0.72-0.037,1.439-0.061,2.161
		c-0.015,0.39-0.038,0.773-0.054,1.164c-0.015,0.219-0.039,0.437-0.015,0.644c-0.505,2.083-0.604,4.352-0.804,6.459
		c-0.252,2.736-0.482,5.48-0.719,8.214c-0.428,4.987-0.833,9.978-1.483,14.94c-1.53,0.283-3.052,0.215-4.56-0.169
		c0.505-10.405,0.666-20.832,1.002-31.245c0.084-2.666,0.207-5.326,0.207-7.992c0.198,0.122,0.451,0.198,0.788,0.268
		c1.423,0.291,2.876,0.466,4.33,0.536c2.739,0.131,5.476-0.137,8.139-0.758C23.684,54.466,24.02,60.842,24.157,67.207z
		 M26.185,51.424c-0.007,0.106,0,0.215,0,0.331c-0.352-0.438-0.588-0.95-0.596-1.511c0.206,0.016,0.413,0.024,0.619,0.024
		C26.201,50.65,26.194,51.033,26.185,51.424z"/>
	<path fill="#FFFFFF" d="M13.799,2.242l0.017,0.021l0.189,0.05c0.36-0.093,0.705-0.232,1.063-0.326
		c0.35-0.091,0.705-0.157,1.064-0.193c0.357-0.034,0.716-0.044,1.074-0.026c0.372,0.019,0.739,0.088,1.109,0.106
		c0.34,0.017,0.383-0.479,0.078-0.577c-0.725-0.231-1.594-0.164-2.336-0.059c-0.738,0.106-1.58,0.292-2.203,0.717
		c-0.078,0.054-0.105,0.129-0.09,0.22L13.799,2.242z"/>
	<path fill="#FFFFFF" d="M20.159,2.153c-0.027-0.204-0.055-0.408-0.082-0.612l-0.105,0.056l-0.081,0.087L19.855,1.8l0.005,0.125
		l0.031,0.074l0.081,0.088l0.105,0.055l0.125,0.006l0.115-0.038l0.063-0.048l0.064-0.1l0.027-0.121l-0.011-0.083l-0.081-0.136
		l-0.063-0.049L20.159,1.53L20.04,1.557l-0.1,0.065l-0.064,0.1l-0.027,0.12l0.011,0.083l0.081,0.137l0.062,0.048L20.159,2.153z"/>
</g>
<g>
	<path fill="#FFFFFF" d="M85.634,78.66l0.602,7.388c0,0-0.815-0.475-1.031,1.471c-0.215,1.943-0.286,2.88,0.86,3.456
		c1.146,0.577,2.111,2.289,2.511,2.449c0.397,0.16,1.22,1.223,3.298,0.72c2.08-0.505,1.864-1.081,1.434-1.945
		c-0.428-0.861-2.489-2.473-2.796-4.176c-0.307-1.705-1.576-2.161-1.576-2.161l0.335-7.748L85.634,78.66z"/>
	<path fill="#E2DFF0" d="M87.427,78.804l0.431,7.272c0,0,0.299,0.068,1.046,0.758c0.746,0.685,1.679,3.495,1.966,4.141
		c0.286,0.648,1.65,1.081,0.79,1.872c-0.861,0.792-3.084,0.577-3.084,0.577s0.718,1.082,3.298,0.72
		c2.582-0.359,2.151-1.009,1.434-1.945c-0.716-0.936-2.221-2.879-2.796-4.176c-0.573-1.297-0.645-1.724-1.576-2.161
		c0.285-4.611,0.214-7.49,0.214-7.49L87.427,78.804z"/>
	<path fill="#FFFFFF" d="M75.952,78.517c-0.297,0.379-0.502,6.698-0.502,6.698s-1.146-0.146-1.721,1.871
		c-0.573,2.018-1.004,4.177-2.152,5.619c-1.146,1.438-0.285,2.733,1.437,2.733c1.719,0,3.298,0.075,4.016-2.229
		c0.716-2.305,1.714-1.451,1.936-3.46c0.359-3.238-0.573-2.733-0.573-2.733l1.004-8.284L75.952,78.517z"/>
	<path fill="#E2DFF0" d="M71.047,94.136c0.649,0.265,1.36,0.375,2.057,0.317c0.265-0.021,0.54-0.072,0.739-0.241
		c0.182-0.15,0.278-0.375,0.374-0.591c0.863-1.955,1.926-3.819,3.167-5.556c0.102-0.144,0.214-0.308,0.188-0.481
		c-0.066-0.444-0.67-0.353-0.868-0.655c-0.232-0.356-0.007-1.215,0.029-1.631c0.106-1.289,0.273-2.571,0.494-3.845
		c0.141-0.812,0.307-1.618,0.494-2.419c0.512,0.01,1.123-0.214,1.637-0.205c-0.971,2.288-0.386,4.927-0.825,7.369
		c-0.053,0.296-0.119,0.586-0.202,0.871c0.224-0.147,0.497,0.333,0.511,0.595c0.048,0.803,0.069,1.605,0.066,2.407
		c0,0.265-0.004,0.53-0.09,0.778c-0.119,0.352-0.386,0.626-0.625,0.906c-0.407,0.467-0.762,0.978-1.061,1.522
		c-0.186,0.333-0.353,0.687-0.595,0.983C76,94.924,75.13,95.245,74.28,95.288c-0.849,0.039-1.69-0.169-2.503-0.417L71.047,94.136z"
		/>
	<path fill="#FFFFFF" d="M91.048,49.917c-0.104,0.738,0.366,1.516,1.065,1.764c0.057,0.258,0.114,0.521,0.093,0.781
		c-0.026,0.265-0.146,0.53-0.366,0.671c-0.109,0.064-0.233,0.1-0.343,0.162c-0.395,0.231-0.461,0.767-0.482,1.228
		c-0.005,0.144-0.005,0.303,0.103,0.399c0.093,0.083,0.232,0.076,0.356,0.063c0.711-0.078,1.394-0.319,2.045-0.615
		c1.647-0.75,1.326-3.74,0.409-4.922C93.618,49.592,91.067,49.784,91.048,49.917z"/>
	<path fill="#FFFFFF" d="M72.222,50.077c-0.368,0.143-0.444,0.626-0.439,1.023c0.012,0.853,0.14,1.733,0.594,2.454
		c0.547,0.865,1.536,1.405,2.552,1.481c0.007-0.638-0.233-1.278-0.659-1.75c0.255-0.028,0.469-0.229,0.575-0.464
		c0.109-0.234,0.129-0.5,0.131-0.758c0.003-0.54-0.062-1.077-0.194-1.599c-0.462-0.228-0.966-0.37-1.479-0.415L72.222,50.077z"/>
	<path fill="#6F73B6" d="M76.026,47.187c-0.172-0.152-0.576,31.401-0.576,31.401s3.301,0.791,5.02,0.144
		c1.365-14.621,2.673-20.963,2.673-20.963l1.343,20.677c0,0,1.61,1.28,4.784-0.332c0.166-6.154,0.38-30.422,0.38-30.422
		S79.324,50.14,76.026,47.187z"/>
	<path fill="#6165AE" d="M82.767,48.628l1.003,4.681c0,0,2.439,4.968,2.654,7.49c0.214,2.52,1.291,5.401,0.644,5.688
		c-0.644,0.289-2.223,0.65-1.362,1.011c0.861,0.36,1.22,0.504,1.22,0.504l0.143,10.873l2.401-0.128l0.253-31.127
		C89.722,47.619,85.204,49.563,82.767,48.628z"/>
	<path fill="#6165AE" d="M78.032,78.804c0,0,1.075-9.292,1.075-10.228c0-0.937-1.075-1.223-1.576-1.873
		c-0.502-0.646,1.291,0.288,1.721-0.433c0.431-0.718,2.007-7.85,2.366-10.226s1.362-4.896,1.362-4.896l0.288,7.705L80.47,78.731
		L78.032,78.804z"/>
	<path fill="#484098" d="M71.221,49.924c2.366,0.648,4.518,0.287,4.518,0.287l0.288-3.024c0,0,2.077,1.441,6.523,1.368
		s7.53-1.297,7.53-1.297l0.568,2.799c0,0,2.156,0.154,4.811-1.357c-0.645-4.682-2.224-14.765-2.438-16.638
		c-0.217-1.872-0.575-5.617-1.434-8.138c-0.861-2.52-5.492-4.265-5.492-4.265s-1.394,7.29-1.967,9.235
		c-0.575,1.945-1.115,4.386-1.115,4.386s-2.398-7.123-2.9-8.78c-0.504-1.656-0.366-3.342-0.366-3.342l-0.994-1.091
		c0,0-4.092,1.554-5.525,5.082c-1.434,3.531-1.65,14.404-1.65,14.404L71.221,49.924z"/>
	<path fill="#FFFFFF" d="M88.565,11.623c0,0.808-0.801,1.207-1.505,1.068c-0.207-0.045-0.399,0.085-0.406,0.301
		c-0.028,0.982-0.757,1.874-1.346,2.604c-0.576,0.707-1.246,1.36-1.684,2.166c-0.136,0.247,0.214,0.554,0.414,0.315l0.161-0.184
		c0,0.153,0.007,0.308,0.045,0.461c0.076,0.322,0.235,0.629,0.467,0.875c0.206,0.223,0.458,0.347,0.731,0.431
		c-0.181,0.476-0.471,0.93-0.915,1.191c-0.565,0.33-1.263,0.483-1.911,0.492c-1.11,0.015-2.188-0.376-3.029-1.083
		c0.297-0.146,0.535-0.385,0.673-0.692c0.128,0.009,0.259-0.069,0.273-0.238c0.055-0.484-0.015-0.959-0.114-1.429
		c-0.038-0.184-0.093-0.368-0.146-0.545c0.069,0.085,0.155,0.169,0.222,0.254c0.192,0.238,0.542-0.068,0.413-0.322
		c-0.758-1.445-2.684-2.535-2.738-4.302c-0.008-0.216-0.197-0.346-0.397-0.308c-0.711,0.146-1.515-0.261-1.515-1.068
		c0-0.783,0.835-1.152,1.438-0.691c0.197,0.153,0.48-0.062,0.48-0.276v-0.116c0.138-0.061,0.237-0.184,0.217-0.345
		c-0.207-1.637-0.224-3.28-0.055-4.917c0.307,0.2,0.635,0.369,0.963,0.522c0.368,0.246,0.766,0.453,1.169,0.607
		c0.545,0.199,1.196,0.208,1.546-0.322c0.138-0.2,0.192-0.431,0.217-0.661c1.27,0.953,2.943,1.859,4.45,1.382
		c-0.023,1.283-0.038,2.574-0.03,3.856c0,0.223,0.285,0.431,0.482,0.277C87.733,10.471,88.565,10.832,88.565,11.623z"/>
	<path fill="#E2DFF0" d="M79.424,4.838c-0.224-0.129-0.281,0.324-0.143,0.542c0.383,0.605,0.791,1.237,1.422,1.569
		c0.63,0.333,1.55,0.231,1.883-0.401c0.708,0.76,1.603,1.35,2.577,1.703c0.141,1.839,0.278,3.729-0.271,5.489
		c-0.55,1.76-1.955,3.379-3.776,3.609c0.364,0.487,1.022,0.729,1.612,0.591c0.474,1.113,0.523,2.402,0.141,3.549
		c1.405,0.069,2.803-0.872,3.269-2.206c-0.905-0.096-1.681-0.908-1.74-1.821c1.319-1.182,2.271-2.777,2.683-4.506
		c0.786,0.312,1.78-0.383,1.764-1.231c-0.019-0.851-1.041-1.502-1.814-1.157c0.043-1.313,0.086-2.625,0.131-3.936
		c0.01-0.381,0.02-0.78-0.151-1.121c-0.15-0.3-0.424-0.518-0.697-0.712c-0.973-0.694-2.088-1.239-3.278-1.335
		c-1.189-0.097-2.459,0.309-3.215,1.237L79.424,4.838z"/>
	<path fill="#372E7C" d="M80.682,9.527l-0.008-0.13c-0.019-0.075-0.075-0.157-0.147-0.194c-0.075-0.04-0.164-0.059-0.247-0.033
		c-0.078,0.025-0.154,0.074-0.194,0.149c-0.139,0.27-0.179,0.582-0.098,0.877c0.023,0.085,0.083,0.164,0.161,0.208
		c0.071,0.043,0.181,0.063,0.265,0.036c0.083-0.028,0.166-0.079,0.206-0.159c0.043-0.081,0.069-0.182,0.038-0.269l-0.03-0.125
		c-0.005-0.046-0.005-0.091,0-0.137c0.009-0.058,0.021-0.115,0.043-0.17l-0.031,0.078l0.005-0.011L80.682,9.527z"/>
	<path fill="#372E7C" d="M84.707,9.299c-0.06-0.058-0.155-0.102-0.238-0.098c-0.085,0.003-0.176,0.032-0.235,0.098
		c-0.062,0.069-0.093,0.146-0.1,0.238c-0.012,0.192-0.023,0.384-0.036,0.576c-0.007,0.092,0.046,0.2,0.107,0.264
		c0.066,0.065,0.171,0.113,0.264,0.109c0.096-0.004,0.195-0.036,0.262-0.108c0.064-0.071,0.114-0.165,0.109-0.264
		c-0.015-0.191-0.026-0.383-0.035-0.575C84.797,9.448,84.769,9.365,84.707,9.299z"/>
	<path fill="#372E7C" d="M82.47,15.186c0.577-0.02,1.098-0.255,1.505-0.666c0.24-0.243-0.119-0.595-0.373-0.374
		c-0.316,0.276-0.757,0.438-1.168,0.492c-0.447,0.058-0.903-0.035-1.286-0.273c-0.093-0.059-0.224-0.02-0.278,0.072
		c-0.062,0.104-0.015,0.213,0.074,0.28C81.373,15.048,81.93,15.206,82.47,15.186z"/>
	<path fill="#372E7C" d="M81.979,13.634c0.124,0.011,0.25,0.013,0.373,0.009c0.129-0.004,0.278-0.003,0.399-0.046
		c0.129-0.044,0.252-0.096,0.376-0.153c0.091-0.042,0.119-0.169,0.083-0.254c-0.04-0.098-0.138-0.138-0.24-0.119
		c-0.135,0.026-0.188,0.03-0.318,0.044c-0.133,0.014-0.262,0.061-0.395,0.083l-0.095,0.015c-0.008,0.001-0.005,0.001-0.01,0.002
		c0,0-0.007,0-0.028,0.003l-0.193,0.018c-0.083,0.004-0.156,0.004-0.219,0.072l-0.055,0.14l0.105,0.149
		C81.822,13.631,81.91,13.629,81.979,13.634z"/>
	<path fill="#372E7C" d="M95.72,48.291c-1.096-5.901-1.974-11.792-2.615-17.754c-0.269-2.481-0.485-5.416-1.79-7.598
		c-0.53-0.883-1.311-1.567-2.19-2.089c-0.824-0.491-2.042-1.16-3.028-1.191c0-0.076,0-0.154-0.015-0.238
		c0-0.046-0.007-0.092-0.015-0.146c0-0.008,0-0.008,0-0.015c-0.03-0.177-0.23-0.209-0.368-0.138
		c-0.444-0.178-0.811-0.469-0.948-0.921c-0.076-0.238-0.101-0.493-0.053-0.738c0.007-0.084,0.035-0.161,0.06-0.239
		c0.459-0.529,0.91-1.068,1.339-1.621c0.513-0.667,1.026-1.421,1.155-2.266c1.056,0.031,2.057-0.699,1.949-1.882
		c-0.09-0.968-1.046-1.567-1.911-1.313V9.718c0.413-1.207,0.62-2.497,0.504-3.772c0-0.007-0.007-0.016-0.007-0.016
		c0.192-0.314,0.313-0.675,0.345-1.06c0.076-1.006-0.467-1.921-1.094-2.65c-1.201-1.414-2.968-2.29-4.789-2.527
		c-1.69-0.215-3.833,0.092-4.964,1.505c-0.659,0.822-0.694,1.89-0.184,2.797c0.038,0.069,0.083,0.13,0.121,0.191
		c-0.007,0.008-0.014,0-0.023,0.008c-0.656,0.806-0.742,1.935-0.602,2.934c0.145,1.038,0.519,2.037,0.932,2.996
		c-0.855-0.246-1.805,0.354-1.897,1.313c-0.113,1.183,0.895,1.921,1.96,1.883c0.197,1.306,1.231,2.435,2.163,3.449
		c-0.021,0.061-0.038,0.123-0.014,0.199c0.028,0.108,0.062,0.215,0.09,0.323c0.055,0.223,0.1,0.453,0.131,0.676
		c0.048,0.361,0.055,0.729,0.069,1.09c-0.16,0.408-0.566,0.746-1.011,0.777c-0.146,0.007-0.235,0.114-0.267,0.23
		c-2.425,1.014-4.705,2.182-5.782,4.741c-1.11,2.649-1.225,5.63-1.317,8.458c-0.114,3.487-0.376,6.959-0.565,10.439
		c-0.107,1.821-0.2,3.657-0.152,5.477c0.007,0.369-0.038,0.752,0.269,1.008c0.204,0.167,0.511,0.283,0.847,0.36
		c-0.107,0.177-0.207,0.354-0.26,0.546c-0.068,0.275-0.09,0.583-0.083,0.868c0.015,0.607,0.184,1.221,0.504,1.736
		c0.305,0.492,0.766,0.885,1.277,1.137c0.39,0.2,1.172,0.559,1.562,0.223v-0.038c0.066-0.055,0.121-0.131,0.098-0.229
		c-0.066-0.347-0.204-0.679-0.39-0.983c-0.091-0.146-0.19-0.292-0.307-0.423c-0.015-0.023-0.038-0.039-0.053-0.054
		c0.169-0.054,0.328-0.163,0.444-0.293c0.291-0.36,0.283-0.853,0.222-1.292c-0.038-0.237-0.093-0.476-0.121-0.714
		c-0.017-0.129-0.024-0.269-0.008-0.391c0.015-0.13,0.067-0.238,0.043-0.36c-0.007-0.071-0.066-0.086-0.128-0.086
		c-0.028-0.03-0.055-0.07-0.1-0.084c-0.245-0.084-0.56-0.077-0.818-0.093c-0.207-0.022-0.414-0.03-0.62-0.045
		c-0.245-0.054-0.48-0.107-0.726-0.161c-0.169-0.039-0.33-0.078-0.497-0.116c-0.383,0-0.521-0.168-0.416-0.515
		c-0.181-0.591-0.007-1.551,0-2.181c0.033-1.53,0.103-3.059,0.186-4.587c0.176-2.995,0.352-5.991,0.428-8.995
		c0.069-2.62,0.146-5.324,1.004-7.828c0.739-2.183,2.271-3.404,4.113-4.365c0.055,1.346,0.43,2.69,0.736,3.988
		c0.366,1.521,0.78,3.034,1.244,4.524c0.454,1.453,0.941,2.881,1.479,4.295c0.442,1.183,0.901,2.342,1.69,3.333
		c-0.055,3.58,0.021,7.168,0.046,10.74c-0.184,0-0.366,0.015-0.56,0.007c-1.393-0.031-2.791-0.153-4.175-0.391
		c-0.3-0.054-0.772-0.054-1.049-0.199c-0.43-0.239-0.444-0.508-0.497-0.991c-0.068-0.668,0.008-1.399,0.008-2.075
		c0.023-2.765,0.03-5.53,0.045-8.297c0.007-2.795,0.224-5.708-0.146-8.48c-0.007-0.078-0.123-0.107-0.138-0.023
		c-0.459,3.087-0.252,6.337-0.29,9.448c-0.03,3.205-0.1,6.407-0.1,9.61c0,0.447,0.086,0.745,0.245,0.961
		c-0.583,5.071-0.459,10.255-0.504,15.355c-0.055,5.162-0.114,10.318-0.383,15.473c-0.008,0.138,0.1,0.269,0.228,0.307
		c0.124,0.04,0.245,0.054,0.369,0.085c-0.184,0.507-0.131,1.151-0.176,1.685c-0.055,0.63-0.109,1.259-0.162,1.889
		c-0.053,0.652-0.114,1.303-0.176,1.961c-0.031,0.288-0.053,0.589-0.083,0.883c-0.031-0.087-0.107-0.148-0.2-0.117
		c-0.542,0.201-0.973,0.517-1.17,1.085c-0.207,0.612-0.176,1.306-0.313,1.94c-0.214,0.978-0.597,1.899-1.063,2.772
		c-0.421,0.778-0.98,1.492-1.309,2.316c-0.261,0.665-0.399,1.448,0.359,1.805c0.787,0.358,1.69,0.583,2.563,0.583
		c0.766,0,1.553-0.215,2.188-0.662c0.642-0.453,0.97-1.081,1.253-1.805c0.224-0.554,0.499-0.968,0.889-1.406
		c0.29-0.33,0.542-0.676,0.726-1.075c0.39-0.837,0.482-1.745,0.307-2.643c0-0.007,0-0.007,0-0.007c-0.007-0.084,0-0.17-0.007-0.254
		c-0.024-0.353-0.086-0.714-0.184-1.061c-0.055-0.177-0.224-0.255-0.39-0.222c-0.04,0.007-0.069,0.029-0.1,0.036
		c0.045-0.383,0.09-0.774,0.145-1.159c0.098-0.723,0.214-1.444,0.321-2.168c0.207-1.364,0.366-2.727,0.451-4.099
		c0.336-0.038,0.673-0.072,1.009-0.14c0.017,0,0.03-0.009,0.04-0.016c0.028-0.008,0.053-0.015,0.066-0.023
		c0.024-0.015,0.041-0.03,0.055-0.044c0.008-0.017,0.024-0.024,0.031-0.031c0.015-0.033,0.031-0.069,0.038-0.102
		c0-0.008,0-0.008,0-0.008v-0.038c0.497-3.54,0.894-7.099,1.238-10.654c0.16-1.661,0.314-3.312,0.49-4.972
		c0.091-0.904,0.197-1.813,0.275-2.727c0.015-0.162,0.038-0.337,0.053-0.508c0.007,0.115,0.023,0.223,0.031,0.331
		c0.055,0.914,0.131,1.822,0.192,2.729c0.114,1.688,0.19,3.379,0.267,5.07c0.151,3.54,0.406,7.064,0.889,10.577
		c0,0.015,0,0.031,0.007,0.039c0,0.009,0,0.009,0,0.009c0.008,0.036,0.015,0.069,0.038,0.098c0.008,0.018,0.015,0.024,0.024,0.031
		c0.014,0.015,0.028,0.039,0.052,0.048c0.021,0.014,0.038,0.014,0.063,0.021c0.014,0.008,0.021,0.022,0.045,0.022
		c0.39,0.078,0.779,0.124,1.162,0.154c-0.038,2.253,0.514,4.454,0.573,6.707c0.007,0.324,0.514,0.324,0.497,0
		c-0.083-2.245-0.521-4.454-0.825-6.682c0.987,0.069,1.967,0,2.937-0.194c0.138,2.338,0.224,4.664,0.162,6.989
		c0,0.063,0.023,0.103,0.062,0.127c0.007,0.036,0.021,0.066,0.045,0.091c-0.229-0.177-0.521-0.231-0.796-0.19
		c-0.343,0.045-0.926,0.283-1.123,0.65c-0.068-0.023-0.14,0-0.161,0.084c-0.031,0.156-0.045,0.315-0.045,0.468l-0.063-0.046
		l-0.068-0.075l-0.015-0.015l-0.017-0.024l-0.038-0.055l-0.007-0.007l-0.017-0.021l-0.114-0.185
		c-0.031-0.079-0.055-0.125-0.076-0.187c-0.031-0.076-0.055-0.153-0.076-0.225l-0.076-0.149l-0.114-0.056l-0.085,0.024l-0.093,0.106
		v0.16c0.009,0.101,0.017,0.191,0.03,0.292c0.024,0.177,0.063,0.339,0.131,0.501c0.069,0.162,0.174,0.298,0.298,0.413
		c0.068,0.055,0.138,0.114,0.214,0.155c0.1,0.063,0.224,0.121,0.345,0.093c0.085,0.213,0.176,0.42,0.269,0.621
		c0.275,0.616,0.552,1.228,0.839,1.837c0.23,0.46,0.538,0.96,1.059,1.119c0.335,0.104,1.245,0.018,1.117-0.527
		c-0.023-0.094-0.116-0.155-0.209-0.162c-0.184-0.007-0.283,0.162-0.452,0.19c-0.166,0.026-0.35-0.028-0.497-0.122
		c-0.356-0.252-0.542-0.737-0.732-1.122c-0.237-0.482-0.466-0.966-0.696-1.459c-0.116-0.246-0.237-0.489-0.328-0.745
		c-0.062-0.177-0.124-0.347-0.169-0.523c-0.038-0.291,0.39-0.47,0.613-0.529c0.197-0.062,0.442-0.107,0.64-0.031
		c0.214,0.084,0.307,0.292,0.376,0.495c0.1,0.273,0.192,0.552,0.29,0.818c0.2,0.54,0.421,1.063,0.673,1.576
		c0.124,0.256,0.245,0.506,0.385,0.752c0.067,0.132,0.144,0.271,0.222,0.408c0.076,0.131,0.176,0.246,0.021,0.36
		c-0.121,0.101-0.107,0.271,0.045,0.33c0.323,0.124,0.521-0.284,0.469-0.553c-0.041-0.197-0.155-0.377-0.245-0.553
		c-0.093-0.177-0.176-0.354-0.269-0.53c-0.366-0.769-0.688-1.559-0.956-2.359c-0.114-0.322-0.19-0.707-0.436-0.945
		c0.015,0.006,0.036,0.026,0.069,0.026c0.328,0.066,0.411,0.443,0.504,0.719c0.107,0.332,0.222,0.654,0.353,0.969
		c0.299,0.714,0.665,1.396,1.069,2.052c0.397,0.622,0.828,1.222,1.303,1.784c0.336,0.398,1.422,1.405,0.535,1.805
		c-0.599,0.277-1.41,0.367-2.059,0.413c-0.643,0.048-1.329,0-1.904-0.322c-0.598-0.34-0.918-0.936-1.294-1.49
		c-0.343-0.506-0.718-0.914-1.27-1.206c-0.397-0.214-0.718-0.4-0.856-0.854c-0.123-0.406-0.1-0.867-0.123-1.288
		c-0.015-0.407-0.021-0.815,0.007-1.221c0.007-0.194,0.169-1.622,0.537-1.536c0.114,0.028,0.197-0.141,0.084-0.2
		c-1.271-0.593-1.148,3.641-1.056,4.201c0.062,0.383,0.214,0.731,0.514,0.989c0.32,0.277,0.734,0.392,1.063,0.654
		c0.642,0.514,0.927,1.359,1.5,1.943c1.191,1.238,3.058,0.945,4.558,0.585c0.369-0.092,0.742-0.187,0.98-0.499
		c0.214-0.291,0.244-0.685,0.138-1.021c-0.1-0.347-0.338-0.633-0.573-0.9c-0.33-0.377-0.651-0.755-0.951-1.16
		c-0.656-0.891-1.229-1.851-1.674-2.872c-0.29-0.655-0.421-1.936-1.301-2.03c0.169-2.297,0.184-4.609-0.055-6.896
		c0.162-0.038,0.321-0.065,0.483-0.108c0.123-0.032,0.237-0.162,0.23-0.301c-0.252-5.139-0.162-10.263-0.024-15.394
		c0.139-4.993,0.404-10.087-0.121-15.065c0.053-0.016,0.104-0.023,0.169-0.039c0.053,0.715,0.114,1.436,0.167,2.151
		c0.023,0.338,0.544,0.346,0.544,0.031c0.091,0.015,0.184,0.023,0.273,0.039c-0.015,0.33,0.023,0.667,0.138,0.991
		c0.076,0.223,0.176,0.437,0.314,0.63c0.138,0.214,0.32,0.368,0.537,0.516c0.015,0.007,0.035,0,0.052,0.007
		c0.008,0.179,0.008,0.345,0.018,0.515c0,0.107,0.09,0.208,0.197,0.208c0.779-0.022,1.393-0.77,1.262-1.538
		c-0.017-0.101-0.13-0.153-0.214-0.129c-0.106,0.028-0.145,0.129-0.131,0.222c0.06,0.454-0.282,0.901-0.711,1.016
		c0-0.409,0.017-0.815,0-1.216c-0.017-0.392-0.03-0.783-0.047-1.167c0.292-0.024,0.582-0.054,0.865-0.116
		c0.313-0.068,0.62-0.161,0.918-0.268c0.03,0.821,0.047,1.643,0.1,2.466c0.053,0.76,0.045,1.458-0.611,1.95
		c-0.497,0.377-1.124,0.562-1.721,0.707c-0.369,0.083-0.59,0.016-0.636-0.361c-0.03-0.284-0.009-0.575,0.046-0.852
		c0.03-0.133-0.146-0.215-0.214-0.095c-0.3,0.502-0.528,1.354,0.09,1.723c0.393,0.222,0.865,0.045,1.256-0.069
		c0.368-0.107,0.725-0.239,1.064-0.415c0.74-0.393,1.208-1.029,1.239-1.881c0.015-0.531-0.055-1.068-0.109-1.593
		c-0.06-0.567-0.114-1.136-0.167-1.704c0.343-0.146,0.688-0.315,1.009-0.499c0.131,0.015,0.269-0.062,0.32-0.192
		c0.01,0,0.024-0.008,0.031-0.016C96.103,48.752,95.972,48.36,95.72,48.291z M73.995,50.565c0.19,0.03,0.383,0.069,0.566,0.076
		c0,0.015,0,0.038-0.01,0.055c-0.028,0.2-0.028,0.399-0.007,0.599c0.055,0.368,0.161,0.76,0.076,1.129
		c-0.053,0.254-0.229,0.46-0.487,0.469c-0.093,0.007-0.169-0.018-0.217-0.069c-0.098-0.139-0.066-0.393-0.066-0.545
		c-0.01-0.501-0.01-1.008-0.017-1.506C73.91,50.726,73.965,50.648,73.995,50.565z M72.326,50.611c0.438,0.084,0.88,0.129,1.21,0.207
		c-0.047,0.492-0.1,0.992-0.154,1.482c-0.021,0.256-0.045,0.5,0.086,0.723c0.083,0.161,0.242,0.283,0.418,0.331
		c0.055,0.014,0.109,0.014,0.169,0.014c0.048,0.07,0.1,0.141,0.146,0.209c0.093,0.131,0.178,0.27,0.252,0.415
		c0.1,0.208,0.169,0.443,0.216,0.676c-0.093-0.023-0.176-0.038-0.262-0.062c-0.214-0.063-0.428-0.146-0.627-0.261
		c-0.419-0.239-0.794-0.576-1.07-0.978C72.16,52.57,72.098,51.532,72.326,50.611z M86.088,19.904
		c0.314,0.223,0.673,0.393,1.049,0.553c-0.376,2.858-0.696,5.701-1.4,8.505c-0.642,2.588-1.529,5.1-2.608,7.536
		c-0.021-1.076-0.062-2.152-0.114-3.219c0.066-0.046,0.129-0.109,0.169-0.208c0.68-2.111,1.153-4.301,1.604-6.468
		c0.404-1.944,0.721-3.878,0.949-5.846c0.069-0.106,0.145-0.214,0.199-0.33C86.02,20.242,86.066,20.074,86.088,19.904z
		 M82.914,22.086c0.827-0.031,1.69-0.231,2.332-0.769c0.017-0.007,0.024-0.022,0.031-0.029c-0.368,1.75-0.742,3.509-1.146,5.253
		c-0.444,1.874-0.972,3.71-1.462,5.57c-0.948-3.665-2.294-7.222-2.922-10.955C80.665,21.787,81.789,22.132,82.914,22.086z
		 M80.261,19.566c0.128,0.009,0.259-0.069,0.273-0.238c0.055-0.484-0.015-0.959-0.114-1.429c-0.038-0.184-0.093-0.368-0.146-0.545
		c0.069,0.085,0.155,0.169,0.222,0.254c0.192,0.238,0.542-0.068,0.413-0.322c-0.758-1.445-2.684-2.535-2.738-4.302
		c-0.008-0.216-0.197-0.346-0.397-0.308c-0.711,0.146-1.515-0.261-1.515-1.068c0-0.783,0.835-1.152,1.438-0.691
		c0.197,0.153,0.48-0.062,0.48-0.276v-0.116c0.138-0.061,0.237-0.184,0.217-0.345c-0.207-1.637-0.224-3.28-0.055-4.917
		c0.307,0.2,0.635,0.369,0.963,0.522c0.13,0.092,0.269,0.177,0.413,0.254c0.245,0.139,0.497,0.253,0.756,0.353
		c0.545,0.199,1.196,0.208,1.546-0.322c0.138-0.2,0.192-0.431,0.217-0.661c1.27,0.953,2.943,1.859,4.45,1.382
		c-0.023,1.283-0.038,2.574-0.03,3.856c0,0.223,0.285,0.431,0.482,0.277c0.597-0.453,1.429-0.092,1.429,0.698
		c0,0.808-0.801,1.207-1.505,1.068c-0.207-0.045-0.399,0.085-0.406,0.301c-0.028,0.982-0.757,1.874-1.346,2.604
		c-0.576,0.707-1.246,1.36-1.684,2.166c-0.136,0.247,0.214,0.554,0.414,0.315l0.161-0.184c0,0.153,0.007,0.308,0.045,0.461
		c0.076,0.322,0.235,0.629,0.467,0.875c0.206,0.223,0.458,0.347,0.731,0.431c-0.181,0.476-0.471,0.93-0.915,1.191
		c-0.482,0.276-1.056,0.43-1.614,0.476c-0.1,0.008-0.2,0.017-0.297,0.017c-1.11,0.015-2.188-0.376-3.029-1.083
		C79.885,20.112,80.123,19.874,80.261,19.566z M82.569,36.536c-1.332-2.182-2.104-4.801-2.867-7.197
		c-0.438-1.345-0.828-2.704-1.178-4.073c-0.347-1.344-0.567-2.765-1.034-4.079c0.476-0.246,0.971-0.476,1.484-0.691
		c0.116,0.115,0.23,0.231,0.361,0.338c0.252,4.394,2.108,8.504,3.058,12.769c0.03,0.152,0.147,0.221,0.269,0.221
		C82.617,34.731,82.584,35.63,82.569,36.536z M75.148,86.955c0-0.007,0-0.007,0-0.017c0.1,0,0.2,0.01,0.3,0.017
		c0.221,0.036,0.444,0.048,0.666,0.107c0.411,0.117,0.787,0.346,1.077,0.659c0.03,0.033,0.071,0.041,0.116,0.055
		c-0.069,0.094-0.131,0.186-0.184,0.285c-0.102,0.166-0.192,0.336-0.292,0.505c-0.2,0.34-0.404,0.676-0.618,1.014
		c-0.2,0.332-0.414,0.646-0.621,0.978c-0.206,0.32-0.373,0.66-0.565,0.99c-0.197-0.115-0.397-0.215-0.628-0.278
		c-0.176-0.042-0.358-0.066-0.542-0.073c-0.023,0-0.045,0.007-0.069,0.007c0.314-0.575,0.55-1.206,0.773-1.808
		C74.844,88.605,75.021,87.783,75.148,86.955z M78.63,87.87c0.009,0.159,0.009,0.322-0.008,0.483c0,0.075-0.014,0.158-0.014,0.244
		c0,0.084,0.045,0.17,0.1,0.247c0.021,0.522-0.069,1.053-0.278,1.536c-0.288,0.676-0.855,1.121-1.238,1.728
		c-0.359,0.562-0.467,1.252-0.84,1.813c-0.393,0.578-1.041,0.938-1.707,1.086c-0.766,0.167-1.56,0.044-2.295-0.177
		c-0.199-0.064-0.396-0.127-0.589-0.2c-0.305-0.124-0.404-0.37-0.338-0.692c0.086-0.385,0.262-0.745,0.461-1.084
		c0.726-1.259,1.47-2.465,1.874-3.888c0.183-0.636,0.237-1.251,0.267-1.913c0.04-0.744,0.252-1.244,0.965-1.549
		c0.031-0.018,0.038-0.041,0.053-0.063c0,0.029-0.008,0.063-0.008,0.092c-0.03,0.336-0.106,0.699-0.045,1.045
		c-0.01,0-0.01,0-0.017,0c-0.015-0.007-0.028-0.014-0.045-0.021c-0.152-0.049-0.376,0.052-0.397,0.229
		c-0.124,0.814-0.307,1.612-0.499,2.419c-0.167,0.7-0.411,1.376-0.618,2.065c-0.038,0.012-0.076,0.02-0.114,0.033
		c-0.086,0.039-0.146,0.108-0.131,0.199c0.017,0.086,0.086,0.162,0.176,0.162c0.01,0,0.017,0,0.017,0
		c0.038,0.024,0.083,0.03,0.129,0c0.106,0.007,0.214,0.007,0.323,0.017c0.09,0.008,0.128,0.014,0.204,0.029
		c0.076,0.007,0.152,0.03,0.238,0.052c0.275,0.096,0.527,0.246,0.734,0.461c0.107,0.106,0.297,0.106,0.406,0
		c0.104-0.106,0.114-0.306,0-0.406c-0.055-0.045-0.116-0.076-0.169-0.122c0.253-0.277,0.512-0.546,0.742-0.845
		c0.238-0.308,0.459-0.638,0.68-0.967c0.224-0.317,0.436-0.641,0.643-0.961c0.114-0.169,0.224-0.348,0.338-0.518
		c0.007-0.015,0.014-0.028,0.023-0.036c0.321-0.015,0.549-0.291,0.711-0.568c0.076-0.121,0.145-0.247,0.221-0.362l0.008,0.062
		l0.007,0.018l0.01,0.107C78.615,87.7,78.622,87.783,78.63,87.87z M78.546,83.373c-0.093,0.672-0.183,1.33-0.269,1.999
		c-0.045,0.376-0.083,0.753-0.121,1.129c-0.021,0.177-0.062,0.36-0.055,0.538c-0.076,0.132-0.136,0.27-0.19,0.398l-0.055,0.127
		l-0.028,0.06c0,0.014-0.017,0.028-0.023,0.043c-0.024-0.029-0.055-0.054-0.093-0.067c0.03-0.106-0.008-0.246-0.076-0.315
		c-0.383-0.385-0.873-0.653-1.394-0.776c-0.235-0.061-0.489-0.085-0.732-0.061c0.053-0.247,0.06-0.514,0.083-0.776
		c0.031-0.368,0.069-0.736,0.101-1.113c0.06-0.651,0.114-1.313,0.169-1.968c0.052-0.631,0.083-1.258,0.106-1.889
		c0.007-0.332,0.015-0.669,0.021-0.997c0-0.264,0.023-0.502-0.031-0.745c1.063,0.236,2.136,0.328,3.215,0.25
		C78.981,80.601,78.746,81.983,78.546,83.373z M89.308,62.972c-0.169,5.056-0.26,10.093-0.038,15.142
		c-1.477,0.374-2.96,0.446-4.465,0.177c-0.445-3.495-0.683-7.008-0.842-10.533c-0.069-1.643-0.147-3.298-0.252-4.94
		c-0.117-1.591-0.139-3.458-0.568-5.048c0.055-0.212,0.04-0.446,0.055-0.666c0.023-0.392,0.038-0.776,0.052-1.171
		c0.031-0.72,0.055-1.441,0.063-2.163c0.017-0.723,0.009-1.446-0.021-2.168c-0.033-0.705,0.038-1.521-0.238-2.182h-0.114
		c-0.237,0.677-0.154,1.477-0.186,2.182c-0.021,0.722-0.045,1.445-0.062,2.168c-0.015,0.722-0.035,1.443-0.06,2.163
		c-0.014,0.395-0.038,0.779-0.055,1.171c-0.014,0.191-0.028,0.375-0.021,0.56c-0.459,1.582-0.521,3.418-0.689,5.025
		c-0.176,1.712-0.335,3.427-0.504,5.146c-0.345,3.54-0.728,7.075-1.193,10.608c-1.508,0.253-2.991,0.191-4.468-0.192
		c0.245-5.07,0.307-10.14,0.321-15.219c0.017-5.031,0.261-10.076,0.199-15.109c0.2,0.123,0.452,0.199,0.78,0.269
		c1.422,0.292,2.877,0.469,4.329,0.538c2.739,0.138,5.469-0.124,8.132-0.738C89.386,52.982,89.469,57.979,89.308,62.972z
		 M91.963,51.316c-0.007,0.107,0,0.224,0,0.332c-0.352-0.431-0.589-0.953-0.597-1.506c0.207,0.015,0.414,0.023,0.621,0.015
		C91.98,50.542,91.971,50.932,91.963,51.316z M91.359,49.643c-0.023-0.054-0.062-0.1-0.124-0.115
		c-0.1-0.032-0.214,0.029-0.252,0.129c-0.121,0-0.244-0.008-0.366-0.015c-0.062-0.645-0.131-1.298-0.192-1.944
		c0.131-0.146,0.093-0.385-0.052-0.506c-0.008-0.085-0.015-0.169-0.024-0.262c-0.176-3.28-0.352-6.567-0.527-9.848
		c-0.1-1.721-0.19-3.434-0.283-5.155c-0.086-1.651-0.093-3.365-0.466-4.979c-0.017-0.083-0.131-0.061-0.138,0.016
		c-0.214,1.759-0.024,3.58,0.062,5.347c0.083,1.652,0.159,3.303,0.245,4.963c0.159,3.31,0.32,6.623,0.48,9.933
		c-2.171,0.554-4.383,0.853-6.615,0.891c0.015-3.503,0.091-7.028,0.045-10.54c0.008-0.016,0.024-0.023,0.031-0.038
		c1.246-2.72,2.24-5.539,2.958-8.444c0.683-2.772,1.21-5.669,1.188-8.533c0.58,0.23,1.177,0.445,1.688,0.782
		c1.225,0.792,1.966,1.883,2.418,3.273c0.842,2.59,1.063,5.332,1.314,8.028c0.507,5.332,1.448,10.625,2.426,15.879
		C94.037,49.19,92.698,49.581,91.359,49.643z"/>
	<path fill="#E2DFF0" d="M79.747,21.157c0.383,2.275,1.032,4.485,1.695,6.692c0.559-1.919,1.122-3.761,1.319-5.77
		C81.689,22.09,80.624,21.758,79.747,21.157z"/>
	<path fill="#B9B5DB" d="M85.246,21.318c-0.642,0.538-1.505,0.738-2.332,0.769c-0.053,0.002-0.1-0.008-0.152-0.007
		c-0.197,2.009-0.761,3.851-1.319,5.77c0.426,1.415,0.855,2.831,1.227,4.262c0.49-1.859,1.018-3.696,1.462-5.57
		c0.404-1.745,0.778-3.503,1.146-5.253C85.271,21.295,85.263,21.311,85.246,21.318z"/>
	<path fill="#372E7C" d="M80.998,7.829c-0.005-0.134-0.114-0.275-0.265-0.265c-0.363,0.029-0.713,0.123-1.044,0.286
		c-0.1,0.05-0.133,0.187-0.093,0.285c0.041,0.095,0.164,0.176,0.267,0.132c0.147-0.059,0.298-0.104,0.454-0.135l0.112-0.02
		l0.009-0.001l0.053-0.006c0.081-0.008,0.164-0.011,0.242-0.012C80.871,8.092,81.005,7.971,80.998,7.829z"/>
	<path fill="#372E7C" d="M84.291,8.284c0.109,0.009,0.219,0.017,0.328,0.025c0.106,0.008,0.219,0.024,0.328,0.024
		c0.076,0,0.156-0.034,0.209-0.087c0.052-0.052,0.09-0.137,0.088-0.212c-0.007-0.162-0.129-0.299-0.297-0.299
		c-0.107,0-0.219,0.014-0.328,0.022C84.51,7.765,84.4,7.772,84.291,7.781l-0.179,0.073l-0.073,0.178l0.073,0.179
		C84.165,8.258,84.222,8.279,84.291,8.284z"/>
	<path fill="#372E7C" d="M82.874,17.771l-0.167,0.036l-0.021,0.004l-0.147,0.025l-0.143,0.027l0,0l-0.05,0.006l-0.073,0.007
		c-0.222,0.015-0.417,0-0.618-0.046c-0.093-0.021-0.19,0.02-0.227,0.11c-0.03,0.08-0.01,0.202,0.079,0.24
		c0.244,0.105,0.489,0.171,0.753,0.2c0.117,0.014,0.235,0.018,0.353,0.013c0.138-0.006,0.275-0.042,0.406-0.088
		c0.136-0.044,0.242-0.192,0.192-0.338C83.164,17.82,83.023,17.736,82.874,17.771z"/>
	<path fill="#372E7C" d="M79.483,42.325c0.514,0.033,1.036-0.003,1.55-0.032c0.114-0.008,0.24-0.08,0.267-0.204v-0.146
		c-0.033-0.115-0.146-0.207-0.267-0.204c-0.516,0.011-1.032-0.012-1.548,0.006c-0.516,0.016-1.032,0.019-1.548,0.007
		c-0.283-0.004-0.269,0.402,0,0.433C78.451,42.245,78.967,42.292,79.483,42.325z"/>
	<path fill="#372E7C" d="M87.854,41.37c-0.152,0-0.32,0.087-0.466,0.127c-0.278,0.076-0.557,0.165-0.837,0.231
		c-0.271,0.064-0.547,0.112-0.822,0.137c-0.157,0.014-0.314,0.017-0.467,0.042c-0.143,0.025-0.285,0.049-0.43,0.065
		c-0.181,0.021-0.235,0.268-0.046,0.33c0.295,0.097,0.576,0.165,0.885,0.173c0.278,0.006,0.557-0.005,0.835-0.036
		c0.304-0.032,0.628-0.067,0.918-0.169c0.154-0.055,0.304-0.115,0.451-0.181c0.174-0.076,0.326-0.164,0.328-0.38
		C88.204,41.522,88.04,41.37,87.854,41.37z"/>
	<path fill="#FFFFFF" d="M79.74,1.662c0.675-0.133,1.374-0.145,2.057-0.053c0.332,0.044,0.66,0.122,0.979,0.221
		c0.337,0.104,0.648,0.261,0.979,0.377c0.373,0.13,0.585-0.429,0.264-0.626c-0.628-0.381-1.46-0.52-2.183-0.575
		c-0.744-0.057-1.493,0.041-2.209,0.257C79.374,1.34,79.48,1.713,79.74,1.662z"/>
	<path fill="#FFFFFF" d="M85.91,2.956l0.085-0.053l0.121-0.124l0.048-0.173l-0.048-0.173L85.995,2.31L85.91,2.257
		c-0.063-0.037-0.131-0.056-0.205-0.056c-0.071,0-0.14,0.02-0.202,0.056c-0.123,0.071-0.202,0.207-0.202,0.349
		c0,0.143,0.079,0.278,0.202,0.35c0.063,0.037,0.131,0.056,0.202,0.056C85.779,3.011,85.848,2.992,85.91,2.956z"/>
</g>
<g>
	<rect x="33.896" y="86.404" fill="#372E7C" width="10.859" height="0.771"/>
</g>
<polygon fill="#372E7C" points="34.852,88.721 34.852,85.242 30.835,86.983 "/>
<g>
	<rect x="58.142" y="86.404" fill="#372E7C" width="10.098" height="0.771"/>
</g>
<polygon fill="#372E7C" points="67.283,88.721 67.283,85.242 71.299,86.983 "/>
<text transform="matrix(0.9904 0 0 1 45.7119 89.873)" fill="#372E7C" font-family="'OpenSansCondensed-Bold'" font-size="10.6683">6ft</text>
</svg>
