<?xml version="1.0" encoding="utf-8"?>
<!-- Generator: Adobe Illustrator 16.0.0, SVG Export Plug-In . SVG Version: 6.00 Build 0)  -->
<!DOCTYPE svg PUBLIC "-//W3C//DTD SVG 1.1//EN" "http://www.w3.org/Graphics/SVG/1.1/DTD/svg11.dtd">
<svg version="1.1" id="Layer_1" xmlns="http://www.w3.org/2000/svg" xmlns:xlink="http://www.w3.org/1999/xlink" x="0px" y="0px"
	 width="400px" height="400px" viewBox="0 0 400 400" enable-background="new 0 0 400 400" xml:space="preserve">
<g id="XMLID_338_">
	<g id="XMLID_475_">
		<linearGradient id="XMLID_2_" gradientUnits="userSpaceOnUse" x1="209.2637" y1="311.4326" x2="186.2362" y2="271.6188">
			<stop  offset="0.1053" style="stop-color:#1A4791"/>
			<stop  offset="1" style="stop-color:#112E52"/>
		</linearGradient>
		<path id="XMLID_383_" fill="url(#XMLID_2_)" d="M203.04,274.281c-3.496,3.701-9.046,4.729-12.747,8.226c0-5.14,0-10.281,0-15.421
			c-8.328,0.253-16.58-0.27-24.848-0.9c1.064,4.238,1.884,7.693,2.076,9.022c0.649,4.506,4.737,9.76,5.277,13.514
			c0.541,3.754-1.609,9.383,0.68,15.015c0.027,0.068,0.057,0.137,0.083,0.203h39.564c-0.011-0.962-0.834-26.463-1.351-42.4
			C209.497,266.146,206.504,270.542,203.04,274.281z"/>
		<linearGradient id="XMLID_3_" gradientUnits="userSpaceOnUse" x1="173.8311" y1="328.7891" x2="183.0826" y2="266.1871">
			<stop  offset="0.1053" style="stop-color:#1A4791"/>
			<stop  offset="1" style="stop-color:#112E52"/>
		</linearGradient>
		<path id="XMLID_384_" fill="url(#XMLID_3_)" d="M190.293,267.086c0,5.14,0,10.281,0,15.421c3.701-3.496,9.251-4.524,12.747-8.226
			c3.464-3.739,6.457-8.136,8.735-12.742c-0.237-7.308-0.409-12.605-0.409-12.605l-52.519-8.257
			c0.033,0.222,0.366,1.532,0.886,3.525c1.331,5.108,3.883,14.702,5.712,21.983C173.713,266.816,181.965,267.339,190.293,267.086z"
			/>
		<linearGradient id="XMLID_4_" gradientUnits="userSpaceOnUse" x1="152.9341" y1="328.2764" x2="154.7843" y2="294.9717">
			<stop  offset="0.1053" style="stop-color:#1A4791"/>
			<stop  offset="1" style="stop-color:#112E52"/>
		</linearGradient>
		<path id="XMLID_381_" fill="url(#XMLID_4_)" d="M175.695,283.739c0.378-12.278,0.41-24.558,1.051-36.836l-17.013-2.701
			l-22.218-3.525c0,0.979,2.879,23.26,3.559,31.559C149.742,281.68,163.106,285.139,175.695,283.739z"/>
		<linearGradient id="XMLID_5_" gradientUnits="userSpaceOnUse" x1="184.2158" y1="307.4814" x2="163.0453" y2="270.8783">
			<stop  offset="0.1053" style="stop-color:#1A4791"/>
			<stop  offset="1" style="stop-color:#112E52"/>
		</linearGradient>
		<path id="XMLID_382_" fill="url(#XMLID_5_)" d="M188.844,248.822l-12.098-1.919c-0.641,12.278-0.673,24.558-1.051,36.836
			c-12.589,1.399-25.953-2.06-34.622-11.504c0.091,1.112,0.143,1.977,0.143,2.503c0,4.441,2.416,22.795,2.396,29.201h38.366
			c0.142-5.877,0.274-11.369,0.386-14.391c0.319-8.516,0.397-5.184,3.691-12.219C189.347,270.295,188.844,248.822,188.844,248.822z"
			/>
		<g id="XMLID_476_">
			<g id="XMLID_477_">
				<g id="XMLID_488_">
					<linearGradient id="XMLID_6_" gradientUnits="userSpaceOnUse" x1="166.9453" y1="87.2866" x2="185.2746" y2="110.8528">
						<stop  offset="0.1053" style="stop-color:#1A4791"/>
						<stop  offset="1" style="stop-color:#112E52"/>
					</linearGradient>
					<path id="XMLID_388_" fill="url(#XMLID_6_)" d="M181.046,89.86c-11.543-0.44-15.526,13.05-13.506,21.803
						c2.021,8.753,24.214,8.574,26.929,0.42C197.051,104.329,194.469,89.912,181.046,89.86z"/>
					<linearGradient id="XMLID_7_" gradientUnits="userSpaceOnUse" x1="181.0718" y1="159.8364" x2="190.3235" y2="298.4072">
						<stop  offset="0.1053" style="stop-color:#1A4791"/>
						<stop  offset="1" style="stop-color:#112E52"/>
					</linearGradient>
					<path id="XMLID_386_" fill="url(#XMLID_7_)" d="M206.299,256.453c-3.101,1.348-8.448,2.189-13.656,2.711
						c-7.391,0.741-14.501,0.837-14.501,0.837s-1.189-30.274-2.208-56.571c-0.46-11.889-0.886-22.965-1.148-30.06
						c-0.079-2.098-0.143-3.847-0.189-5.168c-0.558-15.667-14.55-36.887-14.55-36.887l37.461-6.118c0,0,1.561,20.864,3.377,46.4
						C203.095,202.709,205.686,240.761,206.299,256.453z"/>
					<linearGradient id="XMLID_8_" gradientUnits="userSpaceOnUse" x1="142.2095" y1="274.0674" x2="181.6836" y2="225.7528">
						<stop  offset="0.1053" style="stop-color:#1A4791"/>
						<stop  offset="1" style="stop-color:#112E52"/>
					</linearGradient>
					<path id="XMLID_380_" fill="url(#XMLID_8_)" d="M192.643,259.164c0.017-22.063-0.089-60.336-0.089-60.336l-13.678,10.486
						c0,0-1.201-2.375-2.942-5.885c-0.46-11.889-0.886-22.965-1.148-30.06c7.558-0.562,17.558-1.224,26.099-1.772
						c2.211,31.111,4.802,69.163,5.415,84.855C203.198,257.801,197.851,258.643,192.643,259.164z"/>
					<linearGradient id="XMLID_9_" gradientUnits="userSpaceOnUse" x1="225.7197" y1="172.1738" x2="215.5606" y2="103.8728">
						<stop  offset="0" style="stop-color:#90D4D6"/>
						<stop  offset="1" style="stop-color:#FFFFFF"/>
					</linearGradient>
					<path id="XMLID_514_" fill="url(#XMLID_9_)" d="M234.829,184.378c-6.946,6.142-16.205,1.068-16.205,1.068
						c3.483-3.368,13.072-3.563,12.413-8.974c-0.394-3.223-4.554-5.5-4.56-5.502c-4.631-3.314-14.897-7.676-14.897-7.676
						l-5.281-38.098c4.726,1.391,17.34,22.539,18.427,25.737c1.084,3.2,12.994,20.425,13.829,22.094
						C239.389,174.697,238.631,181.016,234.829,184.378z"/>
					<linearGradient id="XMLID_10_" gradientUnits="userSpaceOnUse" x1="202.5781" y1="187.8198" x2="188.8033" y2="215.1639">
						<stop  offset="0" style="stop-color:#90D4D6"/>
						<stop  offset="1" style="stop-color:#FFFFFF"/>
					</linearGradient>
					<path id="XMLID_377_" fill="url(#XMLID_10_)" d="M196.212,196.856c4.846,2.037,10.071,3.153,15.416,3.773
						c0.301-7.216,1.101-17.521,1.653-25.062c-6.176-0.641-12.314-1.799-18.392-3.262L196.212,196.856z"/>
					<linearGradient id="XMLID_11_" gradientUnits="userSpaceOnUse" x1="206.0439" y1="177.3672" x2="196.6447" y2="114.1748">
						<stop  offset="0" style="stop-color:#90D4D6"/>
						<stop  offset="1" style="stop-color:#FFFFFF"/>
					</linearGradient>
					<path id="XMLID_378_" fill="url(#XMLID_11_)" d="M206.299,125.197l-18.126-6.396l6.216,44.197l0.501,9.308
						c6.077,1.463,12.216,2.621,18.392,3.262c0.327-4.461,0.568-7.955,0.568-9.27C213.85,147.559,206.299,125.197,206.299,125.197z"
						/>
					<linearGradient id="XMLID_12_" gradientUnits="userSpaceOnUse" x1="211.1191" y1="271.0313" x2="199.391" y2="192.1818">
						<stop  offset="0" style="stop-color:#90D4D6"/>
						<stop  offset="1" style="stop-color:#FFFFFF"/>
					</linearGradient>
					<path id="XMLID_376_" fill="url(#XMLID_12_)" d="M211.628,200.63c-5.345-0.62-10.57-1.736-15.416-3.773l4.034,74.892
						c0,0,16.582-10.01,18.378-17.241c0,0-6.487-39.766-7.044-46.696C211.461,206.324,211.498,203.768,211.628,200.63z"/>
					<linearGradient id="XMLID_13_" gradientUnits="userSpaceOnUse" x1="170.6704" y1="110.1274" x2="134.5895" y2="173.9629">
						<stop  offset="0" style="stop-color:#45B3B3"/>
						<stop  offset="1" style="stop-color:#90D4D6"/>
					</linearGradient>
					<path id="XMLID_344_" fill="url(#XMLID_13_)" d="M183.232,114.253c-1.075-2.239-1.426-4.923-0.334-8.297
						c-5.319-7.503-20.263-7.963-20.263-7.963c-0.363,14.209-0.419,22.971-0.419,22.971l4.887,10.629
						C172.987,126.357,178.256,120.282,183.232,114.253z"/>
					<linearGradient id="XMLID_14_" gradientUnits="userSpaceOnUse" x1="177.3677" y1="154.7041" x2="182.3017" y2="93.6452">
						<stop  offset="0" style="stop-color:#45B3B3"/>
						<stop  offset="1" style="stop-color:#90D4D6"/>
					</linearGradient>
					<path id="XMLID_379_" fill="url(#XMLID_14_)" d="M188.173,120.082c-1.902-1.641-3.818-3.492-4.94-5.829
						c-4.977,6.029-10.245,12.104-16.129,17.34l2.699,5.869l16.604,5.572l4.487-5.572L188.173,120.082z"/>
					<linearGradient id="XMLID_15_" gradientUnits="userSpaceOnUse" x1="165.2969" y1="253.3105" x2="142.2553" y2="172.2679">
						<stop  offset="0" style="stop-color:#90D4D6"/>
						<stop  offset="1" style="stop-color:#FFFFFF"/>
					</linearGradient>
					<path id="XMLID_343_" fill="url(#XMLID_15_)" d="M155.958,209.931c-3.683-3.683-5.739-8.385-9.407-12.28
						c-5.88,15.215-15.549,38.222-15.441,52.168c0,0,12.041,22.664,31.105,24.155c12.1,0.946,20.682,0,20.682,0
						s2.092-44.167,1.442-70.429c-3.793,2.259-7.306,4.756-11.318,7.003C167.883,213.221,160.481,214.66,155.958,209.931z"/>
					<linearGradient id="XMLID_16_" gradientUnits="userSpaceOnUse" x1="165.9341" y1="191.3691" x2="146.4567" y2="122.8626">
						<stop  offset="0" style="stop-color:#90D4D6"/>
						<stop  offset="1" style="stop-color:#FFFFFF"/>
					</linearGradient>
					<path id="XMLID_374_" fill="url(#XMLID_16_)" d="M182.722,175.96c-12.517-7.266-24.821-14.782-35.604-25.035
						c-1.512-1.479-2.957-2.99-4.362-4.521c3.671,14.234,8.206,32.726,8.203,37.19c-0.002,2.278-1.846,7.43-4.406,14.056
						c3.668,3.896,5.724,8.598,9.407,12.28c4.523,4.729,11.925,3.29,17.064,0.617c4.013-2.247,7.525-4.744,11.318-7.003
						c-0.066-2.688-0.162-5.189-0.292-7.437C183.561,187.59,183.105,180.968,182.722,175.96z"/>
					<linearGradient id="XMLID_17_" gradientUnits="userSpaceOnUse" x1="164.5435" y1="163.1113" x2="148.3703" y2="106.2265">
						<stop  offset="0" style="stop-color:#90D4D6"/>
						<stop  offset="1" style="stop-color:#FFFFFF"/>
					</linearGradient>
					<path id="XMLID_375_" fill="url(#XMLID_17_)" d="M147.118,150.925c10.783,10.253,23.087,17.77,35.604,25.035
						c-0.707-9.216-1.174-12.961-1.174-12.961l-19.332-42.035c-10.711,4.666-24.05,8.063-24.05,8.063
						c0.021,0.076,2.107,7.754,4.589,17.378C144.161,147.935,145.605,149.446,147.118,150.925z"/>
					<linearGradient id="XMLID_18_" gradientUnits="userSpaceOnUse" x1="149.2695" y1="52.3345" x2="182.4656" y2="95.0152">
						<stop  offset="0" style="stop-color:#45B3B3"/>
						<stop  offset="1" style="stop-color:#9AD8DB"/>
					</linearGradient>
					<path id="XMLID_339_" fill="url(#XMLID_18_)" d="M152.603,79.842c0,0,3.426,18.33,5.229,22.573
						c1.804,4.242,9.178,13.916,16.308,13.916c6.755,0,13.586-9.165,15.409-13.068c1.822-3.903,5.609-18.16,6.151-24.779
						c0.539-6.619-6.493-20.903-21.819-21.073C158.553,57.241,151.881,69.319,152.603,79.842z"/>
					<linearGradient id="XMLID_19_" gradientUnits="userSpaceOnUse" x1="156.521" y1="87.1982" x2="150.9987" y2="95.0399">
						<stop  offset="0" style="stop-color:#45B3B3"/>
						<stop  offset="1" style="stop-color:#9AD8DB"/>
					</linearGradient>
					<path id="XMLID_340_" fill="url(#XMLID_19_)" d="M153.697,85.44c-2.536-3.053-2.717,1.02-2.717,4.585
						c0,3.563,2.936,9.741,5.254,6.992C155.849,88.667,153.697,85.44,153.697,85.44z"/>
					<linearGradient id="XMLID_20_" gradientUnits="userSpaceOnUse" x1="155.3608" y1="53.8457" x2="170.997" y2="73.9493">
						<stop  offset="0.1053" style="stop-color:#1A4791"/>
						<stop  offset="1" style="stop-color:#112E52"/>
					</linearGradient>
					<path id="XMLID_385_" fill="url(#XMLID_20_)" d="M185.501,70.554c-4.768-2.534-18.662-1.625-21.82,0.298
						c-5.256,3.201-7.782,14.133-7.447,16.754c0.336,2.622-0.548,4.284-0.548,4.284c-4.135-11.781-5.014-17.805-1.236-26.255
						c4.464-9.986,16.688-13.232,26.179-11.153C193.171,57.23,191.712,68.021,185.501,70.554z"/>
					<linearGradient id="XMLID_21_" gradientUnits="userSpaceOnUse" x1="178.0161" y1="58.418" x2="195.4712" y2="80.8602">
						<stop  offset="0.1053" style="stop-color:#1A4791"/>
						<stop  offset="1" style="stop-color:#112E52"/>
					</linearGradient>
					<path id="XMLID_387_" fill="url(#XMLID_21_)" d="M185.501,70.554c3.346,2.981,5.07,13.835,4.839,17.053
						c-0.23,3.217,1.438,5.309,1.438,5.309s2.896-4.774,3.95-8.649c1.053-3.875,2.222-8.631,1.11-13.057
						c-1.11-4.427-2.751-11.961-6.878-12.084C185.832,59.003,185.501,70.554,185.501,70.554z"/>
					
						<linearGradient id="XMLID_22_" gradientUnits="userSpaceOnUse" x1="10068.6699" y1="87.1982" x2="10063.1475" y2="95.0399" gradientTransform="matrix(-1 0 0 1 10259.7949 0)">
						<stop  offset="0" style="stop-color:#45B3B3"/>
						<stop  offset="1" style="stop-color:#9AD8DB"/>
					</linearGradient>
					<path id="XMLID_341_" fill="url(#XMLID_22_)" d="M193.948,85.44c2.537-3.053,2.716,1.02,2.716,4.585
						c0,3.563-2.935,9.741-5.254,6.992C191.797,88.667,193.948,85.44,193.948,85.44z"/>
				</g>
				<linearGradient id="XMLID_23_" gradientUnits="userSpaceOnUse" x1="185.4521" y1="108.9902" x2="199.201" y2="154.6959">
					<stop  offset="0" style="stop-color:#90D4D6"/>
					<stop  offset="1" style="stop-color:#FFFFFF"/>
				</linearGradient>
				<path id="XMLID_521_" fill="url(#XMLID_23_)" d="M200.246,141.784l-0.764,2.761l-5.094,18.452l-6.216-40.288
					c0,0-2.188-2.389-3.713-5.261c-0.396-0.738-0.742-1.509-0.999-2.278c-0.031-0.093-0.06-0.183-0.089-0.275
					c-0.077-0.257-0.146-0.514-0.199-0.767c2.667,0.55,4.541,1.745,5.83,2.985c1.843,1.768,2.497,3.628,2.566,3.832v0.002
					c0.002,0.011,0.004,0.017,0.004,0.017l5.266,6.552l2.393,2.979l-0.569,0.545l-0.993,0.95l-1.223,1.17l-1.69,1.617l3.612,4.609
					L200.246,141.784z"/>
				<linearGradient id="XMLID_24_" gradientUnits="userSpaceOnUse" x1="184.2407" y1="122.2671" x2="176.4544" y2="139.8836">
					<stop  offset="0" style="stop-color:#45B3B3"/>
					<stop  offset="1" style="stop-color:#90D4D6"/>
				</linearGradient>
				<path id="XMLID_478_" fill="url(#XMLID_24_)" d="M188.173,122.711c0,0-2.188-2.391-3.714-5.263
					c-0.393-0.739-0.742-1.509-0.998-2.278c-0.031-0.092-0.061-0.184-0.089-0.274C185.434,115.604,187.24,117.704,188.173,122.711z"
					/>
				<linearGradient id="XMLID_25_" gradientUnits="userSpaceOnUse" x1="156.3135" y1="110.8398" x2="170.8026" y2="159.0062">
					<stop  offset="0" style="stop-color:#90D4D6"/>
					<stop  offset="1" style="stop-color:#FFFFFF"/>
				</linearGradient>
				<path id="XMLID_487_" fill="url(#XMLID_25_)" d="M160.043,141.979l2.172-7.98c0,0-3.212-0.537-5.822-1.1
					c-0.605-0.131-1.179-0.261-1.672-0.388c-1-0.257-1.674-0.492-1.619-0.654c0.102-0.305,0.477-1.235,1.113-2.792
					c0.407-0.995,0.921-2.244,1.542-3.751c0.267-0.652,0.555-1.351,0.863-2.099c0.486-1.184,1.041-2.318,1.611-3.367
					c0.543-1.004,1.098-1.929,1.615-2.736c1.308-2.046,2.369-3.355,2.369-3.355l0.018,2.834l0.01,1.465l0.008,1.15l-0.035,1.758
					l19.332,42.033L160.043,141.979z"/>
			</g>
		</g>
		<g id="XMLID_490_">
			<linearGradient id="XMLID_26_" gradientUnits="userSpaceOnUse" x1="179.2627" y1="184.7285" x2="117.5854" y2="236.1263">
				<stop  offset="0" style="stop-color:#90D4D6"/>
				<stop  offset="1" style="stop-color:#FFFFFF"/>
			</linearGradient>
			<path id="XMLID_346_" fill="url(#XMLID_26_)" d="M184.528,164.188c-3.3-1.281-6.146,5.049-6.146,5.049
				c-2.98-2.817-5.916,3.893-5.916,3.893c-0.108-0.254-0.229-0.541-0.362-0.854c-0.271,9.963-3.707,19.389-8.009,28.427
				c3.42,1.259,7.17-1.541,9.103-2.475c2.401-1.16,42.05-24.966,42.581-25.044c0.015-0.109,0.029-0.219,0.044-0.328
				c-10.132-3.212-20.308-6.215-30.436-9.73C184.823,163.752,184.528,164.188,184.528,164.188z"/>
			<linearGradient id="XMLID_27_" gradientUnits="userSpaceOnUse" x1="202.1191" y1="185.3306" x2="199.2296" y2="141.5742">
				<stop  offset="0" style="stop-color:#90D4D6"/>
				<stop  offset="1" style="stop-color:#FFFFFF"/>
			</linearGradient>
			<path id="XMLID_373_" fill="url(#XMLID_27_)" d="M207.494,146.865c-0.379,0.19-17.691,12.633-19.771,14.151
				c-1.015,0.741-1.797,1.511-2.334,2.108c10.128,3.516,20.304,6.519,30.436,9.73C217.507,160.401,212.087,143.81,207.494,146.865z"
				/>
			<linearGradient id="XMLID_28_" gradientUnits="userSpaceOnUse" x1="156.73" y1="232.752" x2="148.8475" y2="113.3882">
				<stop  offset="0" style="stop-color:#90D4D6"/>
				<stop  offset="1" style="stop-color:#FFFFFF"/>
			</linearGradient>
			<path id="XMLID_345_" fill="url(#XMLID_28_)" d="M149.84,133.376c-6.245-5.777-9.942-4.617-13.219-3.195
				c-5.212,2.264-9.939,8.994,2.849,36.952c8.876,19.404,18.333,27.411,22.226,31.853c0.76,0.87,1.571,1.412,2.401,1.717
				c4.302-9.038,7.737-18.464,8.009-28.427C168.932,164.793,158.785,141.65,149.84,133.376z"/>
		</g>
		<linearGradient id="XMLID_29_" gradientUnits="userSpaceOnUse" x1="217.709" y1="178.7339" x2="214.3775" y2="128.2853">
			<stop  offset="0" style="stop-color:#45B3B3"/>
			<stop  offset="1" style="stop-color:#9AD8DB"/>
		</linearGradient>
		<path id="XMLID_493_" fill="url(#XMLID_29_)" d="M205.026,154.884c0,0,1.557-8.252,1.307-9.373
			c-0.251-1.12,0.982-3.595,0.708-6.103c-0.273-2.507,0.297-4.774,1.119-4.227c0.823,0.549,3.445,3.724,3.172,7.313
			c-0.274,3.591,2.466,4.592,3.563,4.044s4.593-5.071,4.593-5.071l-1.152-1.834c0,0,3.423,0.711,4.245,1.423
			c0.821,0.711-1.517,2.153-0.421,3.338c1.097,1.186,1.646,0.91,2.057,1.733c0.411,0.822,0.822,2.181,1.096,3.557
			c0.274,1.378,1.646,3.707,1.782,3.981s0.274,2.646,0,3.517c-0.274,0.869-4.935,4.021-7.949,6.215
			c-3.016,2.193-10.088,2.908-10.169,2.228C208.538,161.959,205.026,154.884,205.026,154.884z"/>
		<linearGradient id="XMLID_30_" gradientUnits="userSpaceOnUse" x1="191.542" y1="174.1816" x2="172.8314" y2="185.2847">
			<stop  offset="0" style="stop-color:#45B3B3"/>
			<stop  offset="1" style="stop-color:#90D4D6"/>
		</linearGradient>
		<path id="XMLID_294_" fill="url(#XMLID_30_)" d="M188.126,171.974c-0.894,3.388-1.298,11.618-3.048,12.276
			c-0.523-0.367-0.918-0.91-1.091-1.551c-0.969-3.566-1.468-6.65-1.649-9.305c1.82,0.193,4.25,0.403,5.34,0.275
			C187.825,173.103,187.978,172.535,188.126,171.974z"/>
		<linearGradient id="XMLID_31_" gradientUnits="userSpaceOnUse" x1="184.6641" y1="162.5972" x2="165.9486" y2="173.7031">
			<stop  offset="0" style="stop-color:#45B3B3"/>
			<stop  offset="1" style="stop-color:#90D4D6"/>
		</linearGradient>
		<path id="XMLID_295_" fill="url(#XMLID_31_)" d="M189.557,162.232c-1.021-0.407-2.716-1.122-4.721-1.982
			c0.504-0.823,1.482-1.218,2.42-0.975c0.311,0.079,0.66,0.161,1.047,0.245C189.008,160.197,189.376,161.207,189.557,162.232z"/>
		<linearGradient id="XMLID_32_" gradientUnits="userSpaceOnUse" x1="213.3457" y1="189.6484" x2="208.1484" y2="154.7065">
			<stop  offset="0" style="stop-color:#90D4D6"/>
			<stop  offset="1" style="stop-color:#FFFFFF"/>
		</linearGradient>
		<path id="XMLID_298_" fill="url(#XMLID_32_)" d="M232.818,185.795c-2.113,1.188-7.922,2.056-19.294,1.745
			c-10.803-0.295-15.633-0.607-27.364-2.836c-0.395-0.074-0.761-0.232-1.082-0.454c1.75-0.658,2.154-8.889,3.048-12.276
			c-0.148,0.562-0.301,1.129-0.448,1.696c-1.09,0.128-3.52-0.082-5.34-0.275c-0.487-7.104,1.302-11.135,2.479-13.116
			c0.007-0.012,0.013-0.021,0.019-0.028c2.005,0.86,3.699,1.575,4.721,1.982c-0.181-1.025-0.549-2.035-1.254-2.712
			c9.271,2.031,39.486,5.287,43.521,7.235C246.215,173.71,237.785,182.997,232.818,185.795z"/>
	</g>
	<linearGradient id="XMLID_33_" gradientUnits="userSpaceOnUse" x1="180.3262" y1="183.2539" x2="176.808" y2="159.601">
		<stop  offset="0" style="stop-color:#45B3B3"/>
		<stop  offset="1" style="stop-color:#9AD8DB"/>
	</linearGradient>
	<path id="XMLID_297_" fill="url(#XMLID_33_)" d="M188.126,171.974c-0.148,0.562-0.301,1.129-0.448,1.696
		c-1.09,0.128-3.52-0.082-5.34-0.275c-1.272-0.136-2.247-0.266-2.247-0.266h-7.624l-8.826-18.966c0,0,2.983-2.091,4.079-1.505
		c0.8,0.427,10.604,4.788,17.116,7.592c2.005,0.86,3.699,1.575,4.721,1.982C189.982,164.657,189.111,168.227,188.126,171.974z"/>
	<g id="XMLID_502_">
		
			<linearGradient id="XMLID_34_" gradientUnits="userSpaceOnUse" x1="-497.0591" y1="-497.958" x2="-496.8643" y2="-497.958" gradientTransform="matrix(65.8871 0 0 -65.8871 32915.5313 -32628.0313)">
			<stop  offset="0" style="stop-color:#45B3B3"/>
			<stop  offset="1" style="stop-color:#90D4D6"/>
		</linearGradient>
		<path id="XMLID_506_" fill="url(#XMLID_34_)" d="M165.809,175.146c1.766,3.636,3.618,6.694,5.44,8.869
			c0.912,1.087,1.816,1.955,2.715,2.563c0.45,0.305,0.898,0.543,1.35,0.708c0.449,0.164,0.901,0.254,1.349,0.254
			c0.587,0.001,1.162-0.157,1.687-0.476c0.23-0.138,0.305-0.437,0.166-0.668c-0.139-0.229-0.438-0.304-0.668-0.164
			c-0.384,0.229-0.768,0.334-1.185,0.334c-0.317,0-0.654-0.063-1.016-0.194c-0.63-0.229-1.324-0.672-2.052-1.314
			c-1.092-0.964-2.252-2.371-3.42-4.126c-1.169-1.755-2.347-3.857-3.49-6.212c-0.117-0.241-0.409-0.342-0.65-0.226
			C165.792,174.612,165.692,174.902,165.809,175.146L165.809,175.146z"/>
		
			<linearGradient id="XMLID_35_" gradientUnits="userSpaceOnUse" x1="-501.0938" y1="-498.2979" x2="-500.8994" y2="-498.2979" gradientTransform="matrix(0 81.0496 81.0496 0 40566.125 40783.375)">
			<stop  offset="0" style="stop-color:#45B3B3"/>
			<stop  offset="1" style="stop-color:#90D4D6"/>
		</linearGradient>
		<path id="XMLID_505_" fill="url(#XMLID_35_)" d="M177.008,170.641c0.849,2.473,1.774,4.828,2.484,6.902
			c0.354,1.037,0.654,2.004,0.864,2.875c0.21,0.873,0.328,1.65,0.328,2.299c0,0.539-0.082,0.984-0.238,1.332
			c-0.16,0.349-0.384,0.609-0.731,0.818c-0.231,0.138-0.308,0.436-0.171,0.667c0.138,0.231,0.436,0.308,0.668,0.17
			c0.513-0.302,0.892-0.74,1.122-1.255c0.23-0.516,0.323-1.099,0.323-1.732c-0.001-0.764-0.135-1.607-0.355-2.525
			c-0.331-1.376-0.86-2.923-1.463-4.587c-0.604-1.662-1.28-3.444-1.91-5.278c-0.088-0.254-0.364-0.391-0.618-0.302
			C177.056,170.11,176.921,170.387,177.008,170.641L177.008,170.641z"/>
		<linearGradient id="XMLID_36_" gradientUnits="userSpaceOnUse" x1="177.4678" y1="186.3389" x2="179.4902" y2="186.3389">
			<stop  offset="0.1053" style="stop-color:#1A4791"/>
			<stop  offset="1" style="stop-color:#112E52"/>
		</linearGradient>
		<path id="XMLID_504_" fill="url(#XMLID_36_)" d="M178.098,187.232c0-0.583-0.63-0.811-0.63-0.811
			c0.387-0.844,1.17-1.146,1.688-0.887C179.676,185.795,179.769,187.168,178.098,187.232z"/>
		<linearGradient id="XMLID_37_" gradientUnits="userSpaceOnUse" x1="179.8223" y1="184.3545" x2="180.2906" y2="185.9113">
			<stop  offset="0.1053" style="stop-color:#1A4791"/>
			<stop  offset="1" style="stop-color:#112E52"/>
		</linearGradient>
		<path id="XMLID_503_" fill="url(#XMLID_37_)" d="M180.254,184.378c0.003,0.703,0.779,0.584,0.779,0.584
			c-0.421,1.231-0.908,1.321-1.298,1.231C179.347,186.104,178.406,185.124,180.254,184.378z"/>
	</g>
	<linearGradient id="XMLID_38_" gradientUnits="userSpaceOnUse" x1="165.6812" y1="170.4839" x2="178.3604" y2="170.4839">
		<stop  offset="0" style="stop-color:#45B3B3"/>
		<stop  offset="1" style="stop-color:#90D4D6"/>
	</linearGradient>
	<path id="XMLID_501_" fill="url(#XMLID_38_)" d="M178.298,171.206c-1.085-1.929-2.513-3.663-4.024-4.933
		c-0.757-0.635-1.536-1.152-2.312-1.519c-0.777-0.364-1.553-0.576-2.304-0.577c-0.518,0-1.025,0.104-1.489,0.332
		c-0.444,0.216-0.83,0.471-1.155,0.774c-0.49,0.457-0.833,1.025-1.041,1.689c-0.208,0.666-0.292,1.425-0.292,2.312
		c0.001,1.756,0.326,4.025,0.769,7.087c0.038,0.267,0.285,0.451,0.552,0.413c0.265-0.038,0.45-0.285,0.411-0.552l0,0
		c-0.444-3.058-0.759-5.313-0.758-6.948c0-1.103,0.143-1.911,0.442-2.509c0.15-0.301,0.339-0.553,0.582-0.781
		c0.243-0.228,0.543-0.429,0.917-0.611c0.321-0.156,0.672-0.232,1.063-0.232c0.564,0,1.209,0.164,1.891,0.484
		c1.021,0.479,2.118,1.304,3.143,2.354c1.027,1.05,1.988,2.324,2.759,3.693c0.132,0.235,0.429,0.317,0.663,0.186
		C178.347,171.736,178.43,171.439,178.298,171.206z"/>
	<linearGradient id="XMLID_39_" gradientUnits="userSpaceOnUse" x1="160.3657" y1="142.3857" x2="180.7193" y2="176.1029">
		<stop  offset="0" style="stop-color:#1A4791"/>
		<stop  offset="0.1053" style="stop-color:#1A4791"/>
		<stop  offset="1" style="stop-color:#112E52"/>
	</linearGradient>
	<path id="XMLID_500_" fill="url(#XMLID_39_)" d="M178.809,171.637c-0.482-1.079-0.965-2.304-1.491-3.535
		c-0.792-1.852-1.672-3.721-2.856-5.189c-0.596-0.733-1.273-1.367-2.067-1.824c-0.794-0.457-1.708-0.725-2.709-0.724
		c-0.621,0-1.273,0.101-1.957,0.308c-0.712-1.489-1.712-3.47-2.838-5.777c-1.942-3.981-4.254-8.927-6.074-13.902
		c-0.912-2.487-1.7-4.98-2.256-7.356c-0.058-0.249-0.113-0.493-0.166-0.736c-0.458-2.107-0.72-4.11-0.72-5.915
		c0-0.578,0.027-1.137,0.083-1.67c0.058-0.563,0.147-1.1,0.271-1.607c0.181-0.74,0.431-1.417,0.755-2.024
		c0.377-0.703,0.853-1.314,1.448-1.834c0.543-1.004,1.098-1.929,1.615-2.736c-0.572,0.216-1.098,0.477-1.581,0.778
		c-0.749,0.465-1.391,1.03-1.927,1.672c-0.801,0.966-1.36,2.104-1.712,3.355c-0.355,1.252-0.509,2.618-0.51,4.066
		c0,0.675,0.035,1.37,0.099,2.081c0.1,1.112,0.273,2.267,0.506,3.446c0.255,1.295,0.586,2.62,0.97,3.963
		c1.436,5.013,3.641,10.248,5.751,14.805c1.057,2.278,2.088,4.387,2.985,6.208c0.74,1.495,1.386,2.793,1.885,3.833
		c-1.001,0.627-1.768,1.41-2.286,2.314c-0.63,1.094-0.901,2.338-0.899,3.636c0,1.558,0.379,3.206,1.004,4.886
		s1.503,3.392,2.527,5.07c0.224,0.366,0.703,0.482,1.07,0.257c0.366-0.225,0.483-0.702,0.259-1.071
		c-0.984-1.608-1.818-3.241-2.398-4.801c-0.58-1.558-0.906-3.041-0.904-4.341c0-1.088,0.221-2.042,0.691-2.857
		c0.467-0.809,1.183-1.502,2.269-2.065c0.771-0.299,1.444-0.426,2.038-0.426c0.486,0,0.924,0.084,1.335,0.235
		c0.716,0.267,1.368,0.755,1.975,1.435c0.909,1.016,1.695,2.45,2.398,4.001c0.707,1.546,1.336,3.204,1.995,4.679
		c0.175,0.393,0.635,0.567,1.027,0.393C178.809,172.488,178.984,172.027,178.809,171.637z"/>
	<g id="XMLID_480_">
		
			<linearGradient id="XMLID_40_" gradientUnits="userSpaceOnUse" x1="209.9326" y1="168.7285" x2="208.2397" y2="157.3469" gradientTransform="matrix(0.988 -0.1545 0.1545 0.988 -29.4854 27.1831)">
			<stop  offset="0" style="stop-color:#90D4D6"/>
			<stop  offset="1" style="stop-color:#FFFFFF"/>
		</linearGradient>
		<path id="XMLID_486_" fill="url(#XMLID_40_)" d="M206.498,158.229c0.462,2.959-0.66,5.594-2.506,5.882
			c-1.848,0.289-3.72-1.877-4.183-4.836c-0.463-2.961,0.659-5.594,2.506-5.884C204.163,153.104,206.034,155.269,206.498,158.229z"/>
		<linearGradient id="XMLID_41_" gradientUnits="userSpaceOnUse" x1="204.501" y1="162.7632" x2="203.0897" y2="155.9665">
			<stop  offset="0" style="stop-color:#45B3B3"/>
			<stop  offset="1" style="stop-color:#90D4D6"/>
		</linearGradient>
		<path id="XMLID_539_" fill="url(#XMLID_41_)" d="M207.06,160.504c-0.239,1.931-1.201,3.395-2.555,3.608
			c-0.194,0.03-0.392,0.033-0.586,0.007c-1.643-0.188-3.18-2.197-3.595-4.844c-0.464-2.961,0.659-5.596,2.506-5.884
			c0.026-0.004,0.051-0.009,0.078-0.01c0.396-0.047,0.794,0.016,1.176,0.178c0.636,0.265,1.229,0.793,1.723,1.509
			c0.116,0.171,0.23,0.354,0.336,0.547c0.411,0.744,0.718,1.637,0.869,2.614C207.135,159.023,207.146,159.797,207.06,160.504z"/>
		<linearGradient id="XMLID_42_" gradientUnits="userSpaceOnUse" x1="218.8896" y1="176.3125" x2="189.6" y2="118.3228">
			<stop  offset="0" style="stop-color:#1A4791"/>
			<stop  offset="0.1053" style="stop-color:#1A4791"/>
			<stop  offset="1" style="stop-color:#112E52"/>
		</linearGradient>
		<path id="XMLID_269_" fill="url(#XMLID_42_)" d="M205.86,155.633c-0.017-0.187-0.035-0.375-0.054-0.564
			c-0.709-7.233-1.976-15.206-4.704-22.241c-0.001-0.007-0.004-0.018-0.008-0.025c-1.423-3.663-3.246-7.072-5.609-9.981
			c-1.818-2.245-3.963-4.189-6.482-5.707c1.843,1.768,2.497,3.628,2.566,3.832v0.002c0.975,0.872,1.873,1.825,2.708,2.854
			c0.938,1.153,1.786,2.397,2.562,3.715c0.664,1.125,1.269,2.303,1.823,3.524c0.434,0.952,0.837,1.933,1.209,2.932
			c0.599,1.598,1.122,3.251,1.583,4.937c0.117,0.428,0.23,0.857,0.339,1.291c0.43,1.7,0.798,3.427,1.115,5.156
			c0.508,2.753,0.884,5.517,1.176,8.204c0.013,0.101,0.022,0.198,0.032,0.299c0.081,0.74,0.155,1.476,0.221,2.2
			c0.005,0.036,0.006,0.068,0.01,0.103c0.029,0.295,0.215,0.537,0.467,0.646c0.115,0.049,0.244,0.071,0.379,0.06
			c0.316-0.031,0.571-0.242,0.668-0.526c0.021-0.058,0.032-0.117,0.037-0.182c0.005-0.045,0.005-0.092,0-0.139
			C205.885,155.893,205.873,155.763,205.86,155.633z"/>
		<g id="XMLID_481_">
			<linearGradient id="XMLID_43_" gradientUnits="userSpaceOnUse" x1="205.0557" y1="159.8076" x2="204.2318" y2="154.2689">
				<stop  offset="0" style="stop-color:#90D4D6"/>
				<stop  offset="1" style="stop-color:#FFFFFF"/>
			</linearGradient>
			<path id="XMLID_483_" fill="url(#XMLID_43_)" d="M206.603,160.652l-0.187-1.082c0.075-0.391,0.085-0.829,0.015-1.284
				c-0.079-0.502-0.245-0.953-0.464-1.32l-0.225-1.303c0,0-1.269,0.358-1.377,0.383v0.002c-0.798,0.218-1.271,1.401-1.064,2.727
				c0.217,1.386,1.093,2.398,1.956,2.263c0.075-0.012,0.146-0.034,0.215-0.062L206.603,160.652z"/>
			<linearGradient id="XMLID_44_" gradientUnits="userSpaceOnUse" x1="206.3672" y1="159.1338" x2="206.0266" y2="154.3489">
				<stop  offset="0" style="stop-color:#45B3B3"/>
				<stop  offset="1" style="stop-color:#90D4D6"/>
			</linearGradient>
			<path id="XMLID_482_" fill="url(#XMLID_44_)" d="M207.86,157.888c0.216,1.385-0.309,2.617-1.173,2.752s-1.739-0.878-1.956-2.263
				s0.308-2.617,1.173-2.752C206.768,155.49,207.645,156.503,207.86,157.888z"/>
		</g>
	</g>
</g>
</svg>
