<?xml version="1.0" encoding="utf-8"?>
<!-- Generator: Adobe Illustrator 16.0.0, SVG Export Plug-In . SVG Version: 6.00 Build 0)  -->
<!DOCTYPE svg PUBLIC "-//W3C//DTD SVG 1.1//EN" "http://www.w3.org/Graphics/SVG/1.1/DTD/svg11.dtd">
<svg version="1.1" id="Layer_1" xmlns="http://www.w3.org/2000/svg" xmlns:xlink="http://www.w3.org/1999/xlink" x="0px" y="0px"
	 width="100px" height="100px" viewBox="0 0 100 100" enable-background="new 0 0 100 100" xml:space="preserve">
<ellipse fill="#F8DEE9" cx="51.012" cy="48.593" rx="48.934" ry="48.42"/>
<g>
	<path fill="#6F73B6" d="M70.847,5.076c1.145,0.022,2.287,0.044,3.432,0.066c0.477,0.009,1.047-0.029,1.287-0.437
		c0.24-0.404-0.025-0.952-0.434-1.188c-0.41-0.235-0.908-0.243-1.383-0.243c-1.802-0.002-3.604-0.003-5.405-0.005
		c-1.159-0.002-2.333-0.001-3.452,0.289c-0.279,0.072-0.567,0.17-0.759,0.384c-0.192,0.213-0.245,0.573-0.041,0.775
		c0.117,0.118,0.292,0.159,0.457,0.192c1.468,0.299,2.969,0.439,4.468,0.417c-0.012,0.251-0.039,0.518-0.064,0.784
		c0.721,0,1.377,0,2.011,0C70.89,5.775,70.821,5.442,70.847,5.076z"/>
	<path fill="#372E7C" d="M69.531,5.743c-0.002-0.096-0.051-0.186-0.124-0.248c0.403-0.009,0.807-0.022,1.209-0.038
		c-0.027,0.1-0.055,0.201-0.079,0.301c-0.028,0.118-0.041,0.233-0.049,0.351c0.204,0,0.408,0,0.612,0
		c-0.009-0.118-0.021-0.233-0.049-0.351c-0.026-0.106-0.055-0.211-0.084-0.317c1.354-0.059,2.705-0.167,4.042-0.382
		c0.041,0.002,0.082-0.004,0.126-0.018c0.069-0.012,0.14-0.017,0.209-0.029c0.16-0.028,0.241-0.15,0.26-0.286
		c0.344-0.318,0.568-0.751,0.273-1.211c-0.378-0.588-1.191-0.544-1.802-0.532c-2.141,0.044-4.28,0.123-6.419,0.235
		c-0.995,0.052-2.018,0.056-3.006,0.186c-0.593,0.079-1.077,0.466-0.951,1.11c0.145,0.739,0.882,0.964,1.55,1.002
		c1.025,0.058,2.063,0.016,3.09-0.001c0.216-0.003,0.432-0.01,0.647-0.014c-0.067,0.058-0.112,0.141-0.113,0.238
		c-0.002,0.122-0.003,0.245-0.005,0.367c0.223,0,0.444,0,0.666,0C69.533,5.988,69.532,5.865,69.531,5.743z M66.887,4.815
		c-0.483-0.003-0.969-0.003-1.451-0.026c-0.21-0.01-0.435,0-0.634-0.075c-0.255-0.096-0.58-0.38-0.14-0.547
		c0.362-0.137,0.92-0.057,1.308-0.077c0.45-0.023,0.9-0.045,1.35-0.065c0.976-0.044,1.951-0.081,2.928-0.111
		c0.9-0.027,1.801-0.049,2.702-0.064c0.451-0.008,0.902-0.017,1.352-0.019c0.363-0.001,1.233,0.021,0.528,0.487
		c-0.003,0.002-0.004,0.005-0.007,0.007c-1.714,0.143-3.423,0.335-5.143,0.428C68.749,4.802,67.819,4.822,66.887,4.815z"/>
</g>
<g>
	<defs>
		<ellipse id="SVGID_1_" cx="51.012" cy="48.593" rx="48.934" ry="48.42"/>
	</defs>
	<clipPath id="SVGID_2_">
		<use xlink:href="#SVGID_1_"  overflow="visible"/>
	</clipPath>
	<g clip-path="url(#SVGID_2_)">
		<path fill="#6F73B6" d="M68.911,7.016c0.001,0.083-0.002,0.169,0.006,0.25C69.021,7.225,69.002,7.062,68.911,7.016z"/>
		<path fill="#6F73B6" d="M80.486,12.799c0.013-0.518,0.014-1.045-0.135-1.541c-0.15-0.497-0.473-0.965-0.952-1.175
			c-1.49,0.237-2.997,0.568-4.506,0.631c0.112-0.34-0.185-0.616-0.231-0.97c-0.321-0.067-0.65-0.1-0.979-0.097
			c-0.005-0.067-0.01-0.134-0.015-0.201c-0.042-0.579-0.317-1.016-0.353-1.595c-0.016-0.249-0.042-0.525-0.228-0.695
			C72.967,7.044,72.799,7,72.637,6.97c-0.507-0.094-1.032-0.088-1.535,0.018c-0.013-0.31-0.077-0.594-0.139-0.877
			c-0.634,0-1.29,0-2.011,0c-0.028,0.305-0.047,0.61-0.041,0.905c0.091,0.046,0.109,0.209,0.006,0.25
			c-0.008-0.081-0.005-0.167-0.006-0.25c-0.013-0.007-0.021-0.018-0.037-0.02c-0.678,0.028-1.569,0.281-2.23,0.432
			c-0.182,0.041-0.376,0.097-0.484,0.246c-0.111,0.151-0.101,0.355-0.086,0.542c0.031,0.386,0.063,0.771,0.094,1.157
			c-0.58-0.083-1.261-0.023-1.847,0.005c-0.052,0.002-0.108,0.008-0.145,0.045c-0.034,0.037-0.036,0.092-0.034,0.141
			c0.009,0.304,0.109,0.604,0.282,0.855c0.002,0.002,0.006,0.004,0.007,0.006c0.065,0.007,0.133,0.013,0.197,0.02
			c0.005,0.089-0.14,0.052-0.197-0.02c-2.26-0.24-4.797-0.421-6.744,0.706c-0.772,0.447-1.423,1.075-2.023,1.73
			c-0.604,0.659-1.186,1.381-1.42,2.239c-0.221,0.807-0.117,1.661-0.012,2.489l-0.521,0.609c-0.286,0.272-0.59,0.578-0.628,0.968
			c-0.039,0.393,0.214,0.769,0.545,0.987c0.332,0.218,0.731,0.307,1.123,0.38c1.648,0.307,3.398,0.396,4.965-0.198
			c0.356-0.134,0.723-0.325,0.895-0.662c0.139-0.272,0.121-0.617-0.046-0.874c-0.167-0.256-0.477-0.416-0.785-0.404
			c-0.086-0.464,0.063-1.126,0.362-1.494c0.298-0.367,0.72-0.623,1.164-0.792c1.117-0.427,2.358-0.339,3.552-0.244
			c-0.117,0.095,0.12,0.318,0.22,0.431s0.254,0.162,0.401,0.194c0.824,0.18,1.68-0.001,2.514-0.136
			c1.867-0.303,3.773-0.374,5.658-0.209c0.386,0.034,0.799,0.072,1.14-0.109s0.532-0.682,0.264-0.958
			c1.472-0.173,2.714-0.374,4.188-0.547c0.346-0.041,0.699-0.081,1.039-0.004c0.018,0.004,0.036,0.011,0.053,0.02
			C80.695,14.023,80.47,13.435,80.486,12.799z"/>
		<path fill="#6F73B6" d="M64.628,10.446c-0.064-0.007-0.132-0.013-0.197-0.02C64.488,10.498,64.633,10.535,64.628,10.446z"/>
		<path fill="#E2DFF0" d="M55.097,20.636c-0.388-0.288-0.527-0.859-0.315-1.29c0.213-0.432,0.755-0.674,1.221-0.548
			c-0.046-1.515-0.059-3.145,0.81-4.394c0.483-0.697,1.203-1.205,1.966-1.587c1.694-0.848,3.675-1.124,5.539-0.771
			c0.062-0.237,0.122-0.474,0.182-0.71c3.502-0.056,7.003-0.201,10.498-0.433c0.154,0.643,0.118,1.329-0.103,1.952
			c-3.531,0.03-7.063,0.059-10.592,0.088c-0.062,0.373-0.124,0.746-0.186,1.119c-1.132-0.142-2.28-0.284-3.41-0.124
			c-1.13,0.16-2.257,0.662-2.924,1.578c-0.64,0.879-0.779,2.011-0.85,3.092c0.194-0.148,0.466-0.189,0.696-0.107
			c0.041,0.642,0.01,1.289-0.095,1.924L55.097,20.636z"/>
		<g>
			<path fill="#6F73B6" d="M49.65,48.148c0.048-2.126-0.669-2.504-1.48-2.599c-1.767-1.56-2.102-2.552-0.716-3.355
				c1.385-0.804,3.104,0.662,3.009,0.473s-1.958-1.891-1.242-2.977c0.717-1.087,5.732,2.126,5.732,2.126s-0.573-14.649-0.717-16.918
				c-0.143-2.269-0.525-4.631-0.525-4.631s2.292,0.377,3.868,0.425c1.576,0.047,2.197-0.095,2.197-0.095l1.05,18.336
				c0,0,1.959-3.922,4.108-3.638c2.148,0.283,0.954,2.457,0.954,2.457s1.194-2.174,3.344-1.229c2.149,0.945-0.383,4.583-0.383,4.583
				s-2.006-1.701-3.771-0.331c-0.765-1.843-4.012-2.504-5.493-0.614c-1.48,1.891-0.717,3.828-0.717,3.828s-1.814-0.047-1.958,0.993
				c-1.719-0.236-3.246-0.095-4.106,3.355C50.94,47.345,49.65,48.148,49.65,48.148z"/>
			<path fill="#E2DFF0" d="M61.532,38.364c0.338-0.527,0.792-0.98,1.32-1.32c0.285-0.182,0.645-0.333,0.951-0.192
				c0.411,0.19,0.439,0.74,0.531,1.18c0.067,0.325,0.209,0.646,0.461,0.865c0.253,0.219,0.628,0.317,0.936,0.185
				c0.366-0.158,0.534-0.568,0.71-0.924c0.306-0.62,0.734-1.18,1.255-1.638c0.304-0.266,0.676-0.51,1.079-0.473
				c0.643,0.06,1,0.794,1.006,1.431c0.012,1.093-0.611,2.081-1.211,2.999c-0.14-0.308-0.046-0.662-0.033-0.999
				c0.014-0.337-0.125-0.747-0.46-0.804c-0.249-0.042-0.477,0.131-0.66,0.302c-0.671,0.622-1.289,1.37-2.162,1.649
				c-0.223,0.071-0.468,0.107-0.69,0.038c-0.318-0.099-0.53-0.387-0.739-0.643c-0.293-0.358-0.633-0.692-1.05-0.896
				c-0.418-0.204-0.925-0.264-1.352-0.079c-0.11,0.049-0.454,0.147-0.574,0.171L61.532,38.364z"/>
			<path fill="#E2DFF0" d="M57.268,20.787c0,0.213,0.144,11.909,0.573,10.349c0.43-1.559,0.573-10.704,0.573-10.704L57.268,20.787z"
				/>
			<path fill="#E2DFF0" d="M55.275,20.984c0,0,0.846,13.555,0.989,17.099c0.143,3.544,1.074-2.055,1.218-4.395
				s0.573,10.349,0.573,10.349s-1.219,0.142-1.434,1.275c-1.288-0.212-1.288-0.212-1.288-0.212l-1.597-24.404L55.275,20.984z"/>
			<path fill="#FFFFFF" d="M37.759,60.104c0,0,5.826-2.079,8.882-3.875c3.057-1.796,14.519-10.018,16.429-11.247
				c1.911-1.229,3.82-2.363,5.062-1.134c1.242,1.229,0.096,2.552-1.241,3.78c-1.337,1.229-10.124,9.074-10.124,9.074
				s4.68-2.742,7.546-4.35c2.865-1.606,7.736-4.914,8.787-5.481c1.051-0.567,0.955-0.425,0.955-0.425s0.096-1.607-1.337-1.371
				c-1.433,0.236-2.292,0.378-2.292,0.378s0.238-6.616-5.349-4.679c-1.481-2.741-4.586-1.654-5.445-0.425
				c-0.86,1.229-1.051,3.592-1.051,3.592s-1.194,0.188-1.672,1.04c-0.955-0.095-3.199,0.803-3.629,1.795s-0.382,1.323-0.382,1.323
				s-2.532-0.567-3.248,0.047c-0.43,2.363-3.534,5.198-6.447,6.427C40.29,55.804,37.711,59.585,37.759,60.104z"/>
			<path fill="#E2DFF0" d="M58.533,64.358c0,0,5.814-3.412,11.318-6.663c5.506-3.253,6.065-3.971,6.113-4.112
				s0.095-2.409-1.385-2.458c-4.967,4.019-17.05,13.328-17.05,13.328L58.533,64.358z"/>
			<path fill="#E2DFF0" d="M67.847,46.636c0.095-0.142,3.629-1.559,4.871-1.559s1.337,0.992,1.337,0.992s-9.073,5.813-10.029,6.521
				c-0.955,0.71-6.687,3.827-6.639,3.639S67.847,46.636,67.847,46.636z"/>
			<path fill="#E2DFF0" d="M49.077,49.377c2.293-0.615,3.773,0.709,3.773,0.709c0.238-1.938,3.963-2.788,3.963-2.788
				c-0.047-1.607,3.2-1.749,3.2-1.749c0.382-3.922,3.678-4.726,4.538-3.639c-1.528,1.606-1.528,1.938-1.528,1.938
				s2.006-2.221,4.154-1.702c2.148,0.52,3.438,2.316,3.343,2.93c-0.095,0.614-0.286,0.614-0.286,0.614l-1.862,0.567
				c0,0,0.954-1.985-0.813-2.693c-1.767-0.709-2.34,0.425-4.823,1.937c-2.483,1.513-12.895,8.507-13.85,9.121
				c-0.955,0.614-5.396,3.828-6.925,4.348s-4.394,1.606-4.394,1.606s0.669-2.552,2.865-3.922c2.197-1.371,6.782-3.402,7.45-4.49
				C48.552,51.079,49.077,49.377,49.077,49.377z"/>
			<path fill="#FFFFFF" d="M8.968,76.145c13.126-7.627,17.998-16.229,20.577-19.441c2.579-3.214,12.513-6.806,14.232-8.223
				c1.719-1.418,4.298-2.646,4.966-2.741c0.669-0.095,1.815,0.473,1.146,2.552c-0.669,2.08-4.011,5.577-7.068,7.088
				s-4.872,2.836-5.253,5.198c3.629-1.323,9.934-4.915,12.703-6.994c2.771-2.079,10.985-6.71,12.322-8.317
				c1.338-1.607,5.158-2.93,5.922-1.512c0.765,1.418-0.573,3.875-4.298,6.333c-3.726,2.458-7.45,6.617-7.45,6.617
				s6.208-3.024,8.311-4.632c2.101-1.606,8.516-6.834,11.27-5.577c1.241,0.567-0.573,3.97-2.101,5.009
				c-1.528,1.04-12.035,9.356-12.704,10.019c-0.668,0.661-4.489,3.309-4.489,3.309s4.585-1.606,8.311-3.971
				c3.725-2.362,7.832-5.953,9.074-6.615c1.241-0.662,4.202-1.04,3.342,1.606c-0.859,2.646-5.157,7.088-7.545,8.79
				c-2.388,1.701-8.31,5.86-9.839,6.899c-1.528,1.04-2.196,1.891-2.196,1.891s4.394-1.797,6.591-3.592
				c2.196-1.795,6.781-4.158,8.31-3.78c1.529,0.378,1.434,1.322-0.382,2.93c-1.815,1.606-5.54,4.821-7.928,6.144
				c-2.388,1.323-12.417,7.938-18.912,8.979c-6.496,1.038-18.148,2.551-20.536,3.969c-2.388,1.418-4.776,2.741-4.776,2.741
				L8.968,76.145z"/>
			<path fill="#E2DFF0" d="M67.368,43.565c0.955,2.174-8.597,8.506-10.697,9.829c-2.102,1.324-7.451,5.955-6.591,6.617
				c0.86,0.661,2.675-0.662,2.675-0.662s12.322-9.64,13.85-11.153C68.132,46.684,70.521,44.132,67.368,43.565z"/>
			<path fill="#E2DFF0" d="M74.819,46.022c0.764,0.945-0.765,2.836-3.534,5.2c-2.771,2.361-14.997,10.868-16.429,12.003
				c-1.433,1.134-1.433,3.592,2.196,1.606c3.63-1.985,15.569-11.342,17.193-13.327C75.869,49.519,78.926,47.629,74.819,46.022z"/>
			<path fill="#E2DFF0" d="M76.729,53.679c0.096,1.7-6.59,8.789-10.697,10.868c-4.106,2.079-10.314,6.899-11.079,8.128
				c-0.764,1.229,2.005,0.757,4.775-0.85c2.77-1.607,10.983-7.372,12.417-8.979C73.577,61.239,79.595,55.758,76.729,53.679z"/>
			<path fill="#E2DFF0" d="M73.1,66.06c-0.095,1.039-10.889,9.168-17.766,11.908c-6.877,2.741-20.728,2.646-26.84,3.592
				s-17.479,8.222-17.479,8.222l4.585,3.025c0,0,12.322-6.899,18.625-7.184c6.304-0.282,14.614-0.66,24.547-6.804
				c9.935-6.145,14.901-10.02,15.379-11.248C74.629,66.343,73.1,66.06,73.1,66.06z"/>
			<path fill="#E2DFF0" d="M39.669,59.632c0,0-6.495,3.403-6.495,3.12c0-0.284,1.05-4.82,4.775-7.563
				c3.726-2.739,10.793-5.953,11.557-8.789c0.191,3.402-2.77,6.238-5.349,7.655C41.58,55.474,36.804,58.593,39.669,59.632z"/>
			<path fill="#E2DFF0" d="M7.098,71.919c7.546-4.63,14.709-9.546,17.002-13.421c2.292-3.875,2.961-5.104,6.113-6.71
				c3.152-1.607,15.348-8.536,15.84-8.285s-0.271,3.559-0.558,3.559c-0.287,0-10.411,3.969-13.086,7.372
				c-2.674,3.403-5.158,6.238-8.5,9.641c-3.343,3.402-13.755,11.814-13.755,11.814L7.098,71.919z"/>
			<path fill="#372E7C" d="M76.431,53.006c-0.043-0.004-0.085,0-0.127-0.001c-0.001-0.003,0-0.005-0.001-0.007
				c-0.035-0.295-0.115-0.568-0.242-0.839c-0.172-0.365-0.443-0.693-0.772-0.936c0.31-0.309,0.6-0.63,0.856-0.97
				c0.611-0.813,1.187-1.952,0.953-2.995c-0.277-1.241-1.646-1.664-2.794-1.524c-0.015,0.001-0.027,0.006-0.04,0.008
				c0.006-0.043,0.01-0.088,0-0.138c-0.116-0.593-0.758-0.798-1.299-0.803c-0.696-0.005-1.431,0.148-2.103,0.318
				c-0.037,0.009-0.074,0.026-0.112,0.037c0.037-1.537-0.278-3.18-1.397-4.271c0.24-0.146,0.431-0.395,0.586-0.615
				c0.288-0.409,0.539-0.852,0.689-1.33c0.249-0.794,0.172-1.732-0.345-2.408c-0.561-0.734-1.518-0.931-2.387-0.691
				c-0.538,0.148-0.989,0.446-1.392,0.807c-0.006-0.268-0.033-0.534-0.121-0.785c-0.263-0.75-0.974-1.182-1.771-1.085
				c-0.876,0.107-1.683,0.697-2.29,1.301c-0.569,0.566-0.971,1.269-1.24,2.018c-0.156-2.582-0.314-5.164-0.472-7.746
				c-0.093-1.516-0.158-3.036-0.286-4.548c-0.121-1.441-0.081-3.058-0.525-4.441c-0.07-0.219-0.438-0.257-0.489,0
				c-0.267,1.368-0.06,2.878-0.016,4.266c0.049,1.575,0.164,3.15,0.253,4.724c0.169,2.999,0.338,5.998,0.507,8.996
				c0,0.002,0.002,0.003,0.002,0.006c-1.332,0.925-1.902,2.646-1.748,4.24c-0.836,0.02-1.519,0.49-1.866,1.136
				c-0.283-0.116-0.663-0.085-0.941-0.05c0.005-0.041,0.019-0.078,0.013-0.121c-0.255-1.829-0.176-3.7-0.208-5.563
				c-0.036-2.036-0.104-4.072-0.205-6.105c-0.098-1.973-0.225-3.944-0.384-5.914c-0.147-1.831-0.116-4.01-0.764-5.747
				c-0.035-0.097-0.21-0.127-0.229,0c-0.143,0.912-0.015,1.875,0.032,2.794c0.056,1.108,0.156,2.214,0.225,3.322
				c0.134,2.154,0.231,4.311,0.293,6.468c0.06,2.097,0.084,4.194,0.074,6.292c-0.001,0.403-0.01,0.805-0.018,1.208
				c-0.631-0.526-1.29-1.004-2.02-1.401c-0.741-0.403-1.638-0.932-2.517-0.889c-0.825,0.041-1.372,0.711-1.194,1.521
				c0.091,0.412,0.344,0.773,0.624,1.082c0.074,0.082,0.157,0.166,0.242,0.252c-0.413-0.137-0.838-0.227-1.274-0.207
				c-0.719,0.033-1.441,0.357-1.843,0.964c-0.078,0.118-0.132,0.243-0.173,0.369c-0.337-0.119-0.749-0.051-1.183,0.096
				c-2.476,0.841-4.804,2.331-7.047,3.633c-2.595,1.507-5.161,3.067-7.676,4.703c-0.672,0.437-1.359,0.867-1.987,1.368
				c-2.077,1.655-3.606,3.915-5.269,5.95c-1.97,2.412-4.24,4.531-6.698,6.451c-1.294,1.011-2.635,1.957-3.979,2.901
				c-1.152,0.808-2.664,1.528-3.56,2.616c-0.092,0.112-0.01,0.301,0.151,0.257c1.068-0.299,2.02-1.086,2.947-1.679
				c1.131-0.724,2.247-1.467,3.341-2.243c1.936-1.376,3.816-2.838,5.547-4.461c1.825-1.711,3.365-3.645,4.964-5.557
				c1.078-1.288,2.347-2.752,3.638-3.665c4.127-2.917,8.586-5.54,13.059-7.896c0.946-0.499,1.918-1.045,2.942-1.373
				c0.099-0.031,0.227-0.078,0.348-0.103c0.003,0.055,0.036,0.147,0.105,0.286c-0.081,0.962-0.584,2.113-1.495,2.57
				c-0.201,0.102-0.262,0.295-0.232,0.481c-2.513,1.373-5.226,2.354-7.69,3.821c-2.421,1.441-4.719,3.115-6.781,5.03
				c-2.163,2.008-3.904,4.327-5.651,6.685c-1.981,2.672-4.202,5.062-6.756,7.208c-2.609,2.193-5.448,4.106-8.243,6.058
				c-0.433,0.301-0.04,1,0.422,0.714c4.547-2.841,9.152-5.818,12.767-9.81c1.912-2.11,3.445-4.51,5.231-6.719
				c1.712-2.119,3.708-4.009,5.888-5.652c2.207-1.663,4.569-3.063,7.077-4.234c2.397-1.119,4.696-2.228,6.881-3.722
				c0.61-0.417,1.511-0.921,1.844,0.058c0.161,0.472,0.055,1.032-0.063,1.5c-0.198,0.788-0.548,1.525-1.032,2.181
				c-0.995,1.344-2.455,2.273-3.876,3.119c-3.016,1.798-6.488,3.545-7.213,7.295c-0.139,0.718,0.872,1.003,1.111,0.303
				c-0.071,0.209,0.072-0.02,0.217-0.103c0.168-0.096,0.331-0.2,0.501-0.296c0.553-0.309,1.127-0.583,1.7-0.854
				c1.009-0.475,2.038-0.91,3.039-1.4c1.592-0.781,3.052-1.89,4.524-2.869c1.792-1.192,3.604-2.341,5.445-3.459
				c1.872-1.137,3.736-2.286,5.546-3.518c1.637-1.115,3.138-2.387,4.736-3.546c0.768-0.556,1.602-1.07,2.542-1.271
				c1.23-0.264,2.584,0.366,1.815,1.774c-0.479,0.878-1.383,1.583-2.105,2.26c-0.791,0.745-1.602,1.47-2.425,2.18
				c-3.654,3.154-7.544,6.022-11.295,9.056c-0.517,0.418,0.218,1.128,0.728,0.721c2.685-2.136,5.892-3.523,8.848-5.235
				c3.25-1.885,6.186-4.242,9.363-6.235c0.821-0.515,1.684-1.126,2.608-1.446c0.619-0.215,1.852-0.373,2.212,0.384
				c0.394,0.824-0.44,2.045-0.975,2.625c-1.2,1.301-2.733,2.404-4.101,3.529c-1.467,1.207-2.954,2.388-4.458,3.548
				c-3.547,2.74-7.185,5.365-10.828,7.978c-0.48,0.345-0.214,1.161,0.421,0.991c6.629-1.765,11.923-6.312,17.363-10.216
				c0.63-0.452,1.255-0.949,1.931-1.331c0.608-0.344,1.562-0.372,1.635,0.508c0.047,0.581-0.253,1.115-0.535,1.607
				c-0.85,1.479-1.923,2.833-3.098,4.072c-2.38,2.512-5.182,4.581-7.983,6.604c-2.762,1.992-6.166,3.354-8.336,6.058
				c-0.375,0.468,0.104,1.287,0.703,0.899c0.414-0.268,0.967-0.407,1.422-0.592c0.752-0.307,1.508-0.605,2.247-0.939
				c0.953-0.43,1.809-1.076,2.686-1.638c1.286-0.82,2.57-1.646,3.859-2.462c1.218-0.771,2.507-1.584,3.967-1.784
				c0.328-0.046,0.774-0.118,1.093,0.009c0.54,0.215,0.338,0.709,0.007,1.08c-0.424,0.474-1.021,0.846-1.52,1.238
				c-2.197,1.726-4.422,3.419-6.711,5.023c-4.466,3.13-9.208,5.972-14.348,7.883c-2.568,0.955-5.226,1.678-7.938,2.102
				c-2.943,0.459-5.938,0.472-8.876,0.965c-6.559,1.102-12.961,3.979-18.661,7.298c-0.701,0.408-0.065,1.491,0.639,1.082
				c5.573-3.238,11.782-6.018,18.185-7.124c3.263-0.566,6.596-0.543,9.857-1.132c2.907-0.527,5.743-1.395,8.472-2.513
				c5.436-2.229,10.412-5.38,15.124-8.838c1.168-0.857,2.32-1.733,3.465-2.62c1.071-0.832,2.336-1.627,3.255-2.624
				c0.668-0.724,0.941-1.932,0.09-2.632c-0.893-0.734-2.434-0.422-3.435-0.095c-1.572,0.515-2.946,1.477-4.323,2.359
				c-1.599,1.025-3.178,2.1-4.807,3.078c-0.447,0.269-0.929,0.48-1.415,0.681c2.004-1.535,4.381-2.695,6.387-4.151
				c2.995-2.175,5.99-4.429,8.428-7.226c1.137-1.305,2.397-2.821,3.015-4.452C78.371,54.935,78.019,53.141,76.431,53.006z
				 M61.621,38.49c0.473-1.14,1.456-2.3,2.638-2.759c0.601-0.234,1.204-0.114,1.341,0.565c0.104,0.522-0.026,1.08-0.17,1.582
				c-0.117,0.407,0.452,0.782,0.751,0.433c0.465-0.543,0.954-1.15,1.623-1.456c0.629-0.287,1.446-0.263,1.82,0.391
				c0.319,0.56,0.219,1.249-0.043,1.808c-0.19,0.408-0.672,0.88-0.814,1.359c-1.095-0.702-2.544-0.846-3.637-0.144
				c-0.847-1.266-2.509-1.833-4-1.409c-0.004-0.068-0.008-0.136-0.013-0.204C61.276,38.749,61.529,38.713,61.621,38.49z
				 M46.823,45.081c0.119,0.11,0.249,0.207,0.386,0.289c-0.189,0.088-0.377,0.187-0.566,0.296
				C46.72,45.473,46.779,45.278,46.823,45.081z M48.547,45.021c-0.025-0.024-0.052-0.047-0.088-0.066
				c-0.426-0.222-0.921-0.398-1.23-0.785c-0.281-0.351-0.355-0.807-0.052-1.171c0.758-0.909,2.149-0.315,3.012,0.068
				c0.35,0.155,0.665-0.099,0.611-0.465c-0.103-0.696-0.648-1.12-1.083-1.625c-0.2-0.231-0.491-0.653-0.319-0.967
				c0.153-0.281,0.551-0.245,0.819-0.191c0.731,0.148,1.445,0.561,2.087,0.923c0.695,0.392,1.375,0.825,2.018,1.297
				c-0.008,0.467-0.017,0.934-0.016,1.4c0.001,0.534,0.007,1.1,0.412,1.438c-0.539,0.199-1.035,0.52-1.423,0.938
				c-0.458,0.494-0.771,1.097-0.868,1.743c-0.335-0.105-0.688-0.153-1.037-0.121c-0.381,0.036-0.792,0.129-1.064,0.383
				c0.073-0.673-0.009-1.333-0.337-1.898C49.606,45.267,49.103,45.024,48.547,45.021z M67.139,42.803
				c-1.914-0.133-3.593,1.181-4.993,2.3c-2.007,1.603-4.104,3.062-6.275,4.438c-2.063,1.307-4.172,2.542-6.242,3.837
				c-2.088,1.308-4.113,2.775-6.283,3.948c-1.187,0.643-2.471,1.126-3.69,1.704c-0.279,0.133-0.658,0.284-1.045,0.46
				c1.34-2.506,4.289-3.797,6.69-5.284c1.414-0.875,2.779-1.876,3.748-3.24c0.508-0.716,0.998-1.707,1.199-2.708
				c0.386-0.013,0.753-0.138,1.142-0.125c0.42,0.015,0.833,0.166,1.149,0.441c0.286,0.25,0.786,0.093,0.781-0.319
				c-0.012-0.759,0.271-1.423,0.835-1.941c0.275-0.252,0.608-0.456,0.966-0.571c0.373-0.121,0.695-0.102,1.076-0.104
				c-0.011,0.416,0.106,0.847,0.393,1.243c-0.112,0.061-0.221,0.129-0.32,0.208c-0.585,0.471-0.903,1.334-0.51,2.019
				c0.19,0.332,0.693,0.038,0.515-0.299c-0.114-0.214-0.1-0.434-0.011-0.671c0.084-0.216,0.276-0.451,0.468-0.58
				c0.581-0.389,1.354-0.34,2.021-0.309c0.144,0.007,0.334-0.118,0.356-0.269c0.078-0.536-0.615-0.472-0.933-0.461
				c-0.238,0.008-0.477,0.03-0.713,0.068c-0.078,0.012-0.155,0.031-0.231,0.05c-0.769-1.05,0.13-2.506,1.449-2.188
				c0.327,0.079,0.58-0.2,0.518-0.513c-0.306-1.521,0.262-3.389,1.772-4.09c1.336-0.618,3.067-0.077,3.655,1.283
				c0.114,0.263,0.509,0.263,0.688,0.088c0.987-0.964,2.653-0.606,3.538,0.328c0.97,1.024,1.141,2.515,1.076,3.877
				c-0.278,0.105-0.547,0.227-0.813,0.354c0.005-0.012,0.014-0.022,0.019-0.034C69.771,44.22,68.719,42.914,67.139,42.803z
				 M68.88,48.638c-1.809,1.222-3.57,2.512-5.392,3.716c-1.289,0.853-2.644,1.605-4.008,2.347c1.705-1.35,3.397-2.714,5.036-4.143
				c0.861-0.752,1.709-1.52,2.535-2.311c0.449-0.43,0.925-0.869,1.336-1.353c0.159-0.088,0.317-0.179,0.483-0.258
				c0.357-0.171,0.727-0.312,1.102-0.439c0.189,0.221,0.659,0.145,0.724-0.225c0.545-0.147,1.096-0.275,1.657-0.343
				c0.254-0.03,1.076-0.193,1.151,0.182c0.008,0.042,0.026,0.072,0.044,0.104c-0.599,0.201-1.161,0.518-1.699,0.833
				C70.836,47.341,69.852,47.981,68.88,48.638z M74.249,53.836c-0.812,0.555-1.606,1.135-2.398,1.715
				c-1.535,1.126-3.055,2.275-4.604,3.386c-2.504,1.791-5.113,3.491-7.934,4.737c2.569-1.864,5.129-3.741,7.64-5.681
				c1.739-1.341,3.458-2.709,5.146-4.109c0.859-0.714,1.833-1.421,2.701-2.201c0.107,0.073,0.203,0.154,0.312,0.276l0.054,0.062
				l0.017,0.023l0.093,0.135l0.09,0.157l0.03,0.058l0.018,0.037c0.044,0.1,0.077,0.203,0.104,0.309l0.034,0.161l0.008,0.05
				l0.005,0.048c0.003,0.041-0.001,0.082,0,0.122C75.09,53.277,74.65,53.563,74.249,53.836z"/>
			<path fill="#372E7C" d="M80.312,14.393c-0.385-0.201-0.891-0.108-1.315-0.099c-0.422,0.009-0.843,0.02-1.264,0.029
				c-0.406,0.009-0.813,0.018-1.218,0.027c-0.342,0.007-0.677,0.043-1.015,0.084c0.044-1.183,0.046-2.367,0.016-3.55
				c0.191,0.013,0.384,0.021,0.581,0.012c0.393-0.019,0.784-0.037,1.176-0.056c0.781-0.037,1.575-0.036,2.352-0.128
				c0.218-0.025,0.405-0.165,0.405-0.401c0-0.215-0.186-0.405-0.405-0.401c-0.799,0.013-1.604,0.122-2.398,0.191
				c-0.392,0.034-0.783,0.068-1.176,0.102c-0.19,0.016-0.373,0.048-0.554,0.085c-0.008-0.224-0.012-0.449-0.023-0.673
				c-0.016-0.311-0.26-0.596-0.593-0.587c-0.37,0.01-0.739,0.006-1.11,0.01c-0.001-0.117-0.004-0.233-0.006-0.35
				c-0.004-0.178-0.028-0.351-0.053-0.527c-0.041-0.304-0.083-0.607-0.126-0.911c-0.014-0.107-0.144-0.184-0.243-0.184
				c-0.068,0-0.136,0.042-0.186,0.096c-0.45-0.284-0.978-0.328-1.513-0.382c-0.171-0.017-0.343-0.024-0.515-0.035
				c-0.005-0.182-0.011-0.364-0.016-0.546c-0.001-0.031-0.011-0.059-0.013-0.09c-0.204,0-0.408,0-0.612,0
				c-0.002,0.031-0.012,0.059-0.013,0.09c-0.005,0.175-0.011,0.351-0.016,0.526c-0.218,0-0.436-0.001-0.651,0.018
				c-0.089,0.008-0.178,0.022-0.266,0.031c-0.003-0.221-0.005-0.442-0.008-0.665c-0.222,0-0.443,0-0.666,0
				c-0.003,0.25-0.006,0.5-0.009,0.75c-0.272,0.042-0.544,0.09-0.813,0.149c-0.289,0.063-0.575,0.135-0.859,0.218
				c-0.269,0.078-0.437,0.175-0.621,0.348c-0.01-0.004-0.013-0.014-0.022-0.018c-0.176-0.073-0.373-0.034-0.512,0.096
				c-0.15,0.14-0.174,0.357-0.194,0.549c-0.011,0.097-0.008,0.193,0.004,0.289c0.024,0.198,0.085,0.384,0.171,0.562
				c-0.531,0.029-1.063,0.069-1.597,0.143c-0.219,0.03-0.283,0.206-0.247,0.374c-0.062,0.261-0.119,0.521-0.165,0.781
				c-0.028-0.039-0.067-0.072-0.13-0.083c-2.602-0.445-5.621-0.157-7.74,1.539c-0.945,0.758-1.72,1.748-2.191,2.86
				c-0.433,1.022-0.666,2.309-0.219,3.364c-0.11-0.016-0.222-0.02-0.333-0.038c-0.509-0.084-0.769,0.571-0.418,0.81
				c-0.438,0.674,0.06,1.582,0.765,1.894c0.481,0.213,1.019,0.241,1.538,0.288c0.245,0.023,0.492,0.035,0.737,0.053
				c-0.11,3.834,0.054,7.664,0.418,11.482c0.032,0.334,0.554,0.346,0.538,0c-0.18-3.801-0.135-7.608,0.052-11.408
				c0.004,0,0.008,0,0.013,0c0.999,0.057,2.251,0.282,3.133-0.325c0.746-0.513,1.166-1.708,0.36-2.364
				c-0.084-0.068-0.18-0.099-0.276-0.112c-0.378-0.572,0.016-1.397,0.517-1.75c0.404-0.285,0.932-0.365,1.417-0.374
				c0.276-0.005,0.552,0.013,0.827,0.042c0.128,0.015,0.256,0.032,0.383,0.05c0.079,0.012,0.175,0.036,0.253,0.036
				c0.097,0,0.203-0.03,0.299-0.048c0.125-0.024,0.212-0.11,0.26-0.215c0.005,0.016,0.014,0.031,0.02,0.047
				c-0.015,0.013-0.029,0.019-0.043,0.033c-0.134,0.143-0.151,0.38,0,0.522c0.554,0.519,1.639,0.256,2.342,0.234
				c0.935-0.029,1.87-0.06,2.806-0.089c1.836-0.058,3.672-0.116,5.508-0.175c0.33-0.01,0.563-0.257,0.583-0.577
				c0.016-0.244,0.023-0.488,0.037-0.732c0.335,0.042,0.67,0.081,1.011,0.089c0.421,0.009,0.843,0.019,1.265,0.028
				c0.405,0.01,0.811,0.019,1.217,0.028c0.435,0.009,0.97,0.107,1.362-0.099C80.682,15.17,80.682,14.586,80.312,14.393z
				 M59.258,19.952c-0.657,0.229-1.479,0.08-2.16,0.054c-0.784-0.03-1.565-0.024-2.35-0.045c-0.303-0.008-0.678-0.024-0.927-0.221
				c-0.17-0.134-0.319-0.441-0.152-0.629c0.037-0.041,0.059-0.083,0.075-0.125c1.957,0.343,3.989,0.391,5.939,0.008
				c0.009,0.019,0.01,0.036,0.022,0.055C59.942,19.414,59.623,19.824,59.258,19.952z M64.046,15.511
				c-0.086-0.042-0.181-0.098-0.272-0.123c-0.098-0.027-0.215-0.027-0.316-0.037c-0.17-0.017-0.34-0.032-0.51-0.042
				c-0.338-0.019-0.678-0.019-1.014,0.02c-0.642,0.074-1.288,0.282-1.76,0.736c-0.476,0.458-0.773,1.174-0.699,1.828
				c-1.64,0.272-3.285,0.373-4.932,0.229c0.047-0.067,0.077-0.146,0.069-0.239c-0.044-0.502-0.139-0.987-0.091-1.494
				c0.048-0.501,0.196-1.005,0.406-1.463c0.44-0.96,1.14-1.81,1.981-2.454c1.975-1.513,4.503-1.656,6.9-1.741
				c0.061-0.002,0.109-0.03,0.147-0.066c-0.115,0.752-0.171,1.507-0.149,2.282c0.018,0.59,0.069,1.179,0.147,1.764
				c0.036,0.273,0.071,0.551,0.123,0.825C64.066,15.528,64.059,15.518,64.046,15.511z M66.79,8.177
				c0.025-0.062,0.045-0.124,0.042-0.197c0-0.004-0.004-0.007-0.004-0.012c0.141,0.018,0.278,0.023,0.442-0.006
				c0.275-0.049,0.551-0.098,0.83-0.133c0.565-0.068,1.138-0.097,1.708-0.091c0.553,0.007,1.106,0.012,1.658,0.06
				c0.512,0.044,1.034,0.185,1.541,0.094c-0.012,0.09-0.024,0.18-0.037,0.27c-0.024,0.176-0.048,0.349-0.052,0.527
				c-0.003,0.119-0.005,0.238-0.007,0.357c-1.104,0.001-2.209-0.009-3.313-0.022c-0.939-0.012-1.873-0.027-2.805-0.003
				c0.002-0.04,0.012-0.082-0.002-0.113c-0.035-0.085-0.055-0.173-0.072-0.262c-0.006-0.07-0.006-0.141-0.001-0.212
				C66.736,8.346,66.756,8.259,66.79,8.177z M74.279,15.49c-1.649,0.058-3.3,0.115-4.95,0.173c-0.901,0.031-1.802,0.063-2.702,0.094
				c-0.441,0.015-0.881,0.031-1.32,0.046c-0.063-0.415-0.187-0.824-0.263-1.237c-0.103-0.557-0.172-1.117-0.211-1.682
				c-0.067-0.982-0.063-1.987-0.007-2.975c1.62,0.117,3.242,0.156,4.869,0.219c1.538,0.06,3.074,0.11,4.613,0.084
				C74.381,11.972,74.371,13.731,74.279,15.49z"/>
		</g>
		<path fill="#E2DFF0" d="M49.379,45.067c-0.578-0.062-1.124-0.504-1.196-1.075c-0.073-0.57,0.433-1.175,1.012-1.121
			c0.275,0.026,0.519,0.178,0.771,0.292c0.454,0.203,0.963,0.284,1.459,0.231c-0.041-0.51-0.477-0.885-0.823-1.264
			c-0.347-0.379-0.637-0.948-0.36-1.379c0.196-0.305,0.617-0.405,0.974-0.331c0.359,0.074,0.669,0.286,0.969,0.493
			c0.596,0.411,1.191,0.823,1.786,1.234c-0.368,0.197-0.82-0.093-1.234-0.031c-0.503,0.075-0.781,0.653-0.749,1.155
			s0.279,0.962,0.43,1.442c0.056,0.181,0.097,0.388,0.003,0.554c-0.108,0.195-0.355,0.258-0.565,0.34
			c-0.209,0.082-0.434,0.26-0.39,0.479c0.025,0.127,0.135,0.219,0.238,0.3c0.223,0.175,0.451,0.36,0.581,0.61
			c0.131,0.25,0.138,0.587-0.061,0.789c-0.104,0.105-0.247,0.162-0.39,0.203c-0.696,0.2-1.477,0.091-2.09-0.291
			c0.102-0.636-0.02-1.305-0.34-1.866L49.379,45.067z"/>
	</g>
</g>
</svg>
